<?xml version="1.0" standalone="no"?>
<!DOCTYPE svg PUBLIC "-//W3C//DTD SVG 1.1//EN" "http://www.w3.org/Graphics/SVG/1.1/DTD/svg11.dtd" >
<svg xmlns="http://www.w3.org/2000/svg">
<metadata>
<json>
<![CDATA[
{
	"fontFamily": "smartlyjobs",
	"majorVersion": 1,
	"minorVersion": 0,
	"version": "Version 1.0",
	"fontId": "smartlyjobs",
	"psName": "smartlyjobs",
	"subFamily": "Regular",
	"fullName": "smartlyjobs",
	"description": "Font generated by IcoMoon."
}
]]>
</json>
</metadata>
<defs>
<font id="smartlyjobs" horiz-adv-x="1024">
<font-face units-per-em="1024" ascent="960" descent="-64" />
<missing-glyph horiz-adv-x="1024" />
<glyph unicode="&#x20;" horiz-adv-x="512" d="" />
<glyph unicode="&#xe900;" glyph-name="Significon-Archive" data-tags="Significon-Archive" d="M896 0h-768c-70.688 0-128 57.312-128 128v96c0 17.672 14.328 32 32 32s32-14.328 32-32v-96c0-35.344 28.656-64 64-64h768c35.344 0 64 28.656 64 64v256c0 35.344-28.656 64-64 64h-167.016c-20.984 0-39.266-11.562-48.828-28.624 0.72 1.312 1.296 2.516 1.734 3.672-32.078-61.236-96-103.048-169.89-103.048s-137.812 41.812-169.89 103.046c0.438-1.156 1.016-2.36 1.75-3.672-9.578 17.064-27.86 28.626-48.876 28.626h-182c-44.188 0-80 35.812-80 80 0 7.64 1.078 14.984 3.078 22 1.032 3.562 0 5.312-2.094 6.078l50.532 235.954c24.594 78.624 78.296 103.968 122.484 103.968h608c44.218 0 98.14-25.344 122.984-103.968l39.344-181.624-0.188-0.046c3.032-15.89-6.498-31.624-22.36-35.89-16.61-4.438-33.704 5.422-38.188 22.046 0 0.032-0.030 0.11-0.030 0.142l-0.112-0.032-45.122 208.278c-4.406 15.126-22.188 27.094-39.858 27.094h-640.392c-17.688 0-35.39-11.968-39.64-27.094l-53.83-255.234c-5.78-20.578 6.69-37.672 28.048-37.672h169.344c45.704 0 85.454-25.562 105.734-63.156-0.032 0.062-0.062 0.14-0.094 0.204 21.954-38.798 63.594-65.048 111.376-65.048s89.406 26.25 111.376 65.046c-0.032-0.062-0.062-0.14-0.094-0.204 20.28 37.596 60.030 63.158 105.702 63.158h167.016c70.688 0 128-57.312 128-128v-256c0-70.688-57.312-128-128-128v0zM64 352c0-17.672-14.328-32-32-32s-32 14.328-32 32 14.328 32 32 32 32-14.328 32-32v0z" />
<glyph unicode="&#xe901;" glyph-name="Significon-Arrow-Down" data-tags="Significon-Arrow-Down" d="M703.926 672c0 17.672 14.324 32 31.988 32 17.666 0 31.988-14.328 31.988-32s-14.322-32-31.988-32c-17.664 0-31.988 14.328-31.988 32zM986.99 357.484l-384.518-384.656c-24.982-25-57.726-36.828-90.472-36.828s-65.492 11.828-90.474 36.828l-384.526 384.656c-26.754 26.782-38.704 62.422-36.804 97.47v-6.954c0 70.688 57.282 128 127.95 128h63.976c35.332 0 63.976 28.656 63.976 64v192c0 70.688 57.284 128 127.952 128h255.904c70.66 0 127.952-57.312 127.952-128v-32c0-17.672-14.322-32-31.988-32-17.664 0-31.988 14.328-31.988 32v32c0 35.344-28.644 64-63.974 64h-255.908c-35.33 0-63.976-28.656-63.976-64v-192c0-70.688-57.282-128-127.952-128h-63.974c-35.33 0-63.974-28.656-63.974-64 0 0-0.266-0.11-0.64-0.25 0.062-16.296 6.278-32.578 18.71-45l384.518-384.672c24.99-25 65.49-25 90.482 0l384.518 384.672c12.432 12.438 18.664 28.718 18.71 45.032-0.376 0.124-0.64 0.218-0.64 0.218 0 35.344-28.644 64-63.974 64h-31.988c-17.666 0-31.988 14.328-31.988 32s14.322 32 31.988 32h31.988c70.66 0 127.952-57.312 127.952-128v6.954c1.9-35.048-10.062-70.688-36.818-97.47z" />
<glyph unicode="&#xe902;" glyph-name="Significon-Arrow-Left" data-tags="Significon-Arrow-Left" d="M992 448c-17.672 0-32 14.322-32 31.988v95.964c0 35.33-28.656 63.976-64 63.976h-192c-70.688 0-128 57.29-128 127.95v63.974c0 35.33-28.656 63.976-64 63.976 0 0-0.094 0.266-0.226 0.64-16.304-0.046-32.586-6.28-45.032-18.712l-384.664-384.524c-24.992-24.974-24.992-65.49 0-90.464l384.664-384.526c12.438-12.432 28.718-18.648 45.016-18.71 0.14 0.376 0.242 0.64 0.242 0.64 35.344 0 64 28.644 64 63.974v63.976c0 70.66 57.312 127.952 128 127.952h160c17.672 0 32-14.324 32-31.988 0-17.666-14.328-31.988-32-31.988h-160c-35.344 0-64-28.644-64-63.974v-63.976c0-70.66-57.304-127.952-128-127.952h6.96c-35.046-1.904-70.696 10.042-97.468 36.814l-384.672 384.51c-24.992 24.99-36.82 57.734-36.82 90.48s11.828 65.49 36.82 90.48l384.672 384.51c26.766 26.754 62.414 38.718 97.454 36.814h-6.946c70.696 0 128-57.29 128-127.952v-63.976c0-35.33 28.656-63.974 64-63.974h192c70.696 0 128-57.292 128-127.952v-95.964c0-17.664-14.328-31.986-32-31.986zM992 384.026c17.672 0 32-14.324 32-31.988 0-17.666-14.328-31.988-32-31.988s-32 14.322-32 31.988c0 17.664 14.328 31.988 32 31.988z" />
<glyph unicode="&#xe903;" glyph-name="Significon-Arrow-Right" data-tags="Significon-Arrow-Right" d="M987.172 357.52l-384.656-384.51c-26.782-26.772-62.438-38.718-97.484-36.814h6.968c-70.688 0-128 57.292-128 127.952v31.988c0 17.666 14.328 31.988 32 31.988s32-14.322 32-31.988v-31.988c0-35.33 28.656-63.974 64-63.974 0 0 0.11-0.266 0.25-0.64 16.296 0.062 32.562 6.28 45 18.71l384.672 384.526c25 24.974 25 65.49 0 90.464l-384.672 384.522c-12.438 12.432-28.718 18.666-45.032 18.712-0.124-0.376-0.218-0.64-0.218-0.64-35.344 0-64-28.646-64-63.976v-63.976c0-70.66-57.312-127.95-128-127.95h-192c-35.344 0-64-28.646-64-63.976v-255.902c0-35.33 28.656-63.974 64-63.974h32c17.672 0 32-14.324 32-31.988 0-17.666-14.328-31.988-32-31.988h-32c-70.688 0-128 57.292-128 127.952v255.902c0 70.66 57.312 127.952 128 127.952h192c35.344 0 64 28.644 64 63.974v63.974c0 70.662 57.312 127.952 128 127.952h-6.954c35.046 1.906 70.688-10.058 97.468-36.814l384.658-384.51c24.992-24.99 36.828-57.734 36.828-90.48s-11.836-65.49-36.828-90.48zM352 256.074c17.672 0 32-14.324 32-31.988 0-17.666-14.328-31.988-32-31.988s-32 14.322-32 31.988c0 17.664 14.328 31.988 32 31.988z" />
<glyph unicode="&#xe904;" glyph-name="Significon-Arrow-Up" data-tags="Significon-Arrow-Up" d="M1023.804 441.062v6.938c0-70.688-57.292-128-127.952-128h-63.976c-35.33 0-63.974-28.656-63.974-64v-32c0-17.672-14.322-32-31.988-32-17.664 0-31.988 14.328-31.988 32v32c0 70.688 57.292 128 127.952 128h63.976c35.33 0 63.974 28.656 63.974 64 0 0 0.266 0.094 0.64 0.218-0.046 16.312-6.28 32.594-18.71 45.032l-384.526 384.672c-24.99 24.992-65.474 24.992-90.464 0l-384.526-384.672c-12.432-12.438-18.648-28.72-18.71-45 0.376-0.156 0.64-0.25 0.64-0.25 0-35.344 28.644-64 63.974-64h63.976c70.662 0 127.952-57.312 127.952-128v-192c0-35.344 28.646-64 63.976-64h223.916c17.666 0 31.988-14.328 31.988-32s-14.322-32-31.988-32h-223.918c-70.66 0-127.952 57.312-127.952 128v192c0 35.344-28.644 64-63.976 64h-63.974c-70.668 0-127.95 57.312-127.95 128v-6.938c-1.898 35.032 10.050 70.688 36.806 97.438l384.532 384.672c24.976 24.996 57.72 36.828 90.466 36.828s65.49-11.83 90.464-36.828l384.526-384.672c26.756-26.75 38.718-62.406 36.814-97.438zM735.914 128c17.666 0 31.988-14.328 31.988-32s-14.322-32-31.988-32c-17.664 0-31.988 14.328-31.988 32s14.324 32 31.988 32z" />
<glyph unicode="&#xe905;" glyph-name="Significon-Attachment" data-tags="Significon-Attachment" d="M479.992-64c-159.062 0-288 128.938-288 288.034 0 8.124 0.376 16.188 1.046 24.156-0.64 2.5-1.046 5.094-1.046 7.812v479.996c-0.002 123.72 100.28 224.002 224 224.002 123.704 0 224.004-100.282 224.004-224.002v-421.664c0-9.124 0-10.84 0-19.316 0-84.666-73.66-151.016-160.004-151.016-88.376 0-159.984 71.624-159.984 160.032v367.996c0 17.64 14.328 31.968 31.968 31.968 17.688 0 32-14.328 32-31.968v-372.028c0-50.782 43-92 96.016-92s95.986 41.218 95.986 92v435.996c0 88.392-71.61 160.034-159.986 160.034-88.344 0-160-71.642-160-160.034v-511.058c0-124.218 100.298-224.908 224-224.908 123.72 0 224.004 100.69 224.004 224.908v319.074c0 17.672 14.328 32 32.016 32 17.64 0 32-14.328 32-32v-319.98c0-159.096-128.97-288.034-288.020-288.034v0zM736.012 640.030c-17.688 0-32.016 14.312-32.016 32 0 17.64 14.328 31.968 32.016 31.968 17.64 0 32-14.328 32-31.968 0-17.688-14.36-32-32-32v0z" />
<glyph unicode="&#xe906;" glyph-name="Significon-Bell" data-tags="Significon-Bell" d="M863.968 128h-767.984c-53 0-95.984 43-95.984 96.002 0 53.032 42.984 96 95.984 96 17.672 0 32.016 14.312 32.016 32v192.008c0 97.172 39.406 185.158 103.124 248.876l0.032-0.046c5.812 5.984 13.844 9.688 22.828 9.688 17.688 0 31.984-14.344 31.984-32.016 0-8.984-3.704-17.032-9.64-22.828l0.046-0.046c-52.14-52.096-84.374-124.096-84.374-203.628v-208.008c0-44.188-35.844-80-80.032-80h-15.984c-17.688 0-31.984-14.344-31.984-32s14.296-32 31.984-32h767.984c17.688 0 32.032 14.344 32.032 32s-14.344 32-32.032 32h-15.984c-44.188 0-80 35.812-80 80v208.008c0 146.142-108.922 266.548-249.954 285.188 0.172 0.25 0.172 0.406-0.078 0.454-39.438 4.938-69.984 38.58-69.984 79.376v19c0 17.672 14.344 31.972 32.032 31.972 17.672 0 31.984-14.3 31.984-31.972v-12c0-11.906 8.656-21.766 19.984-23.688-1.782 0.282-3.422 0.282-4.906 0 172.062-23.078 304.922-169.97 304.922-348.33v-192.008c0-17.688 14.344-32 31.984-32 53.046 0 96.032-42.968 96.032-96 0-53.002-42.984-96.002-96.032-96.002v0zM351.984 800.010c-17.672 0-32.016 14.312-32.016 31.986 0 17.688 14.344 32.016 32.016 32.016 17.688 0 31.984-14.328 31.984-32.016 0-17.672-14.296-31.986-31.984-31.986v0zM416 64c17.672 0 31.968-14.344 31.968-31.968 0-17.688 14.344-32.032 32.032-32.032 17.672 0 31.984 14.344 31.984 32.032 0 17.624 14.344 31.968 32.016 31.968 17.688 0 31.984-14.344 31.984-31.968 0-53.064-42.984-96.032-95.984-96.032-53.046 0-96.032 42.968-96.032 96.032 0 17.624 14.344 31.968 32.032 31.968v0z" />
<glyph unicode="&#xe907;" glyph-name="Significon-Bolt" data-tags="Significon-Bolt" d="M836.16 839.554l-188.218-237.766c-2.094-2.766-3.406-6.070-3.406-9.796 0-8.828 7.124-15.968 16-15.968h92.75c45.406 0 82.218-36.844 82.218-82.266 0-19.664-7.062-37.64-18.532-51.774l-412.054-482.18c-0.062-0.078-0.032 0.046-0.094-0.078-12.39-14.53-30.828-23.726-51.422-23.726-37.344 0-67.624 30.304-67.624 67.618 0 7.782 1.282 15.282 3.734 22.234 0.094 0.296 0.094 0.376 0.172 0.624l91.094 273.312c0.39 1.376 0.718 2.734 0.718 4.204 0 8.86-7.14 16-15.968 16h-113.016c-44.172 0-80.016 35.844-80.016 80.016 0 7.172 0.938 14.094 2.734 20.688 0 0.078 0 0.046 0 0.124l18.376 66.726c2.656 14.102 14.954 24.718 29.782 24.718 16.782 0 30.376-13.594 30.376-30.382 0-2.946-0.532-5.672-1.312-8.368l0.204-0.070-19.688-70.032c-0.218-1.124-0.438-2.218-0.438-3.406 0-8.828 7.14-16 16-16h120.984c44.172 0 80.016-35.812 80.016-80.016 0-9.438-1.766-19.016-4.704-27.422l-90.376-251.062c-0.25-0.796-0.438-1.624-0.438-2.516 0-4.422 3.594-7.968 8-7.968 2.344 0 4.454 1.016 5.922 2.61 0.078 0.078-0.25-0.422-0.328-0.532l397.804 468.868c2.188 2.796 3.624 6.242 3.624 10.046 0 8.828-7.188 16-16 16h-98.532c-41.406 0-75 33.586-75 74.984 0 17.516 6 33.546 16.094 46.398l187.75 237.118c1.938 2.696 3.156 5.922 3.156 9.476 0 8.86-7.156 16-15.968 16h-350.54c-29.344 0-54.032-19.766-61.61-46.718l-16.422-58.368-0.218 0.070c-3.672-13.172-15.64-22.968-30-22.968-17.25 0-31.25 14-31.25 31.258 0 2.976 0.546 5.812 1.328 8.54l-0.14 0.032 16.39 59.632c0.468 0.68 0.796 1.29 0.906 1.688 15.924 52.594 64.752 90.844 122.518 90.844h354.882c41.5 0 75.124-33.618 75.124-75.132 0.002-17.040-5.748-32.72-15.342-45.314v0zM306.512 671.25c0-17.258-14-31.258-31.25-31.258-17.266 0-31.25 14-31.25 31.258s13.984 31.25 31.25 31.25c17.25 0 31.25-13.992 31.25-31.25v0z" />
<glyph unicode="&#xe908;" glyph-name="Significon-Book" data-tags="Significon-Book" d="M907.656 202.752l-340.278-138.232c-27.124-10.624-56.532-16.546-87.368-16.546-31.094 0-60.766 5.984-88.030 16.796l-339.448 137.872c-31.11 15.892-52.532 48.048-52.532 85.36v431.98c0 17.688 14.36 32 32 32 17.688 0 32.014-14.312 32.014-32v-427.496c0-11.546 6.312-21.422 15.5-27.046l326.732-138.25c0.718-0.282 1.328-0.422 2.046-0.718 22.030-9.328 46.28-14.482 71.718-14.482 25.274 0 49.368 5.092 71.304 14.31 0.718 0.312 1.344 0.468 2.062 0.75l327.090 138.39c9.188 5.624 15.532 15.5 15.532 27.046v299.514c0 17.656 14.344 31.968 32 31.968 17.688 0 32-14.312 32-31.968v-303.996c0.002-37.252-21.342-69.284-52.342-85.252v0zM928 687.966c-17.656 0-32 14.36-32 32.016 0 17.688 14.344 32 32 32 17.688 0 32-14.312 32-32 0-17.656-14.312-32.016-32-32.016v0zM773.19 295.456l-150.938-62.844c-4.094-1.844-8.624-2.876-13.376-2.876-18.124 0-32.874 14.704-32.874 32.86 0 14.062 8.844 25.938 21.25 30.672l153.748 67.28c9.968 5.376 17 15.75 17 27.954v418.98c0 8.828-7.156 16-16 16-2.312 0-4.532-0.5-6.562-1.39v0.032l-216.404-94.718c-10.062-5.376-17-15.75-17-27.906v-443.496c0-35.344-28.68-64.016-64.024-64.016-8.86 0-17.25 1.796-24.938 5.062l-236.434 98.514c-34.484 14.61-58.624 48.688-58.624 88.404v448.014c0 35.344 28.672 64.014 64 64.014 8.718 0 16.968-1.766 24.578-4.952l146.858-61.172c12.062-5.062 20.562-17 20.562-30.89 0-18.516-15-33.514-33.484-33.514-5.594 0-10.796 1.516-15.422 3.922l-120.514 52.734c-0.046 0 0-0.032-0.046-0.032-2 0.89-4.188 1.39-6.516 1.39-8.876 0-16.016-7.172-16.016-16v-418.982c0-12.204 7-22.578 17.016-27.954l216.42-94.686c0.032 0 0 0.032 0.032 0.032 1.968-0.89 4.204-1.39 6.532-1.39 8.828 0 16 7.14 16 16v423.48c0 39.782 24.188 73.936 58.71 88.468l236.686 98.594c7.624 3.186 15.876 4.952 24.594 4.952 35.344 0 64.032-28.67 64.032-64.014v-448.012c-0.002-39.78-24.316-73.936-58.846-88.514v0z" />
<glyph unicode="&#xe909;" glyph-name="Significon-Bookmark" data-tags="Significon-Bookmark" d="M593.406 508.094l60.876 19.782c16.812 5.468 34.86-3.734 40.328-20.546 5.454-16.796-3.75-34.86-20.546-40.328l-60.876-19.782c-16.812-5.454-34.86 3.75-40.312 20.562-5.47 16.812 3.734 34.858 20.53 40.312zM600.656 380.406l31.282-43.032c10.39-14.312 7.218-34.312-7.078-44.718-14.296-10.376-34.312-7.204-44.704 7.094l-29.14 40.094c-8.704 12.188-22.906 20.156-39.016 20.156-15.516 0-29.266-7.39-38.046-18.812l-30.11-41.438c-10.39-14.296-30.406-17.468-44.704-7.094-14.296 10.406-17.468 30.406-7.078 44.718l29.782 40.968c36.438 49.688 106.204 60.656 156.11 24.406 8.874-6.436 16.328-14.076 22.702-22.342zM512 640c17.672 0 32-14.328 32-32v-50c0-61.86-50.14-112-112-112-11.594 0-22.734 1.876-33.266 5.156l-48.796 15.844c-16.796 5.468-26 23.532-20.546 40.328 5.468 16.812 23.516 26.016 40.328 20.546l48.562-15.782c4.36-1.296 8.938-2.094 13.718-2.094 26.516 0 48 21.5 48 48v50c0 17.674 14.328 32.002 32 32.002zM762.624-64c-19.016 0-36.218 7.656-48.75 20.062l-156.624 156.594c-12.5 12.5-28.874 15.344-45.25 15.344s-32.766-2.844-45.25-15.344l-156.624-156.594c-12.532-12.406-29.736-20.062-48.75-20.062-38.314 0-69.376 31.062-69.376 69.376v826.624c0 70.688 57.312 128 128 128h352c17.672 0 32-14.328 32-32s-14.328-32-32-32h-352c-35.344 0-64-28.656-64-64v-805c0-8.844 7.156-16 16-16 4.188 0 7.922 1.688 10.782 4.312l138.704 138.718c24.998 25.002 57.748 37.97 90.514 37.97 32.75 0 65.516-12.968 90.516-37.968l138.718-138.718c2.844-2.624 6.578-4.312 10.766-4.312 8.844 0 16 7.156 16 16v644.998c0 17.672 14.328 32 32 32s32-14.328 32-32v-666.624c0-38.314-31.062-69.376-69.376-69.376zM784 848c-17.672 0-32 14.328-32 32s14.328 32 32 32 32-14.328 32-32-14.328-32-32-32z" />
<glyph unicode="&#xe90a;" glyph-name="Significon-Briefcase" data-tags="Significon-Briefcase" d="M992.016 256.002c-17.672 0-32.016 14.344-32.016 32s14.344 32 32.016 32c17.64 0 31.984-14.344 31.984-32s-14.344-32-31.984-32v0zM896 0h-767.992c-70.718 0-128.008 57.312-128.008 128.002v240.534c0 44.156 35.812 79.968 79.992 79.968 20.032 0 37.876-7.968 52.382-19.532 0.414-0.312 0.54-0.188 0.868-0.376 33.258-27.812 75.992-44.562 122.774-44.562h136c27.696 0 52.132-14.094 66.468-35.534 0.336-0.468 0.704-0.656 1.078-1 11.54-16.562 30.704-27.5 52.422-27.5 21.75 0 40.922 10.938 52.454 27.5 0.376 0.344 0.75 0.532 1.078 1 14.344 21.44 38.782 35.534 66.468 35.534h136c93.718 0 171.656 67.188 188.516 156.008 2.094 6.314 3.5 12.954 3.5 19.954v80.032c0 35.33-28.64 63.97-64 63.97h-767.992c-35.36 0-64-28.64-64-63.97v-96.016c0-17.688-14.344-31.986-32.024-31.986-17.64 0.002-31.984 14.298-31.984 31.986v96.016c0 70.688 57.29 127.97 128.008 127.97h767.992c70.672 0 128-57.282 128-127.97v-64c0-64.908-24.312-123.962-64.124-169.086-5.688-6.468-11.75-12.656-18.046-18.5-0.376-0.312-0.75-0.656-1.078-0.968-5.968-5.438-12.156-10.594-18.578-15.5-0.876-0.656-1.734-1.312-2.61-1.938-5.89-4.344-11.906-8.406-18.172-12.218-1.516-0.968-3.094-1.906-4.704-2.812-5.64-3.284-11.484-6.376-17.422-9.284-2.188-1.062-4.328-2.124-6.516-3.124-5.89-2.624-11.984-5.032-18.094-7.218-2.188-0.782-4.25-1.594-6.422-2.344-5.984-1.968-12.124-3.624-18.296-5.156-2.64-0.656-5.204-1.468-7.876-2.062-6.468-1.344-13.062-2.344-19.704-3.25-2.312-0.312-4.532-0.75-6.876-1.032-9.032-0.968-18.188-1.532-27.5-1.532h-113c-11.296 0-21.218-5.876-26.906-14.688-0.25-0.376-0.656-0.594-1.204-0.718-16.438-28.938-47.218-48.594-82.876-48.594h-64c-35.648 0-66.438 19.656-82.876 48.594-0.54 0.124-0.954 0.344-1.196 0.718-5.688 8.812-15.624 14.688-26.914 14.688h-113c-63.43 0-121.086 23.438-165.758 61.626 0.532-0.938 0.696-1.406 0.242-1.032-2.796 2.438-6.468 3.906-10.508 3.906-8.82 0-15.984-7.156-15.984-15.968v-240.534c0-35.346 28.64-64.002 64-64.002h767.998c35.36 0 64 28.656 64 64.002v32c0 17.656 14.344 32 32.016 32 17.64 0 31.984-14.344 31.984-32v-32c0-70.69-57.328-128.002-128-128.002v0zM672 832c-17.672 0-32.016 14.344-32.016 32.016 0 17.686-14.296 31.984-31.984 31.984h-192c-17.68 0-31.984-14.296-31.984-31.984 0-17.674-14.344-32.016-32.016-32.016-17.688 0-31.984 14.344-31.984 32.016v16c0 44.172 35.812 79.984 79.992 79.984h223.992c44.172 0 79.984-35.812 79.984-79.986v-16c0-17.672-14.296-32.014-31.984-32.014v0z" />
<glyph unicode="&#xe90b;" glyph-name="Significon-Browser" data-tags="Significon-Browser" d="M128 736c0 17.672 14.328 32 32 32s32-14.328 32-32-14.328-32-32-32-32 14.328-32 32zM256 736c0 17.672 14.328 32 32 32s32-14.328 32-32-14.328-32-32-32-32 14.328-32 32zM384 736c0 17.672 14.328 32 32 32s32-14.328 32-32-14.328-32-32-32-32 14.328-32 32zM1024 560v-432c0-70.688-57.312-128-128-128h-768c-70.688 0-128 57.312-128 128v352c0 17.672 14.328 32 32 32s32-14.328 32-32v-352c0-35.344 28.656-64 64-64h768c35.344 0 64 28.656 64 64v416c0 17.672-14.328 32-32 32h-848c-44.188 0-80 35.812-80 80v112c0 70.688 57.312 128 128 128h768c70.688 0 128-57.312 128-128v-32c0-17.672-14.328-32-32-32s-32 14.328-32 32v32c0 35.344-28.656 64-64 64h-768c-35.344 0-64-28.656-64-64v-96c0-17.672 14.328-32 32-32h848c44.188 0 80-35.812 80-80z" />
<glyph unicode="&#xe90c;" glyph-name="Significon-Building" data-tags="Significon-Building" d="M640.010 752.006c0 41.946 32.39 76.032 73.514 79.368 2.078 0.43 4.234 0.648 6.454 0.648h15.998c17.688 0 32.016-14.352 32.016-32.008 0-17.688-14.328-32.008-32.016-32.008-17.638 0-31.998-14.312-31.998-32s-14.312-32-31.998-32c-17.656 0-31.968 14.312-31.968 32v16h-0.002zM713.524 447.364c2.078 0.43 4.234 0.64 6.454 0.64h15.998c17.688 0 32.016-14.312 32.016-32 0-17.656-14.328-32-32.016-32-17.638 0-31.998-14.312-31.998-32 0-17.656-14.312-32.016-31.998-32.016-17.656 0-31.968 14.36-31.968 32.016v16c-0.002 41.968 32.388 76.016 73.512 79.36v0zM640.010 560.020c0 41.938 32.39 75.992 73.514 79.33 2.078 0.43 4.234 0.64 6.454 0.64h15.998c17.688 0 32.016-14.314 32.016-32 0-17.648-14.328-31.968-32.016-31.968-17.638 0-31.998-14.352-31.998-32 0-17.688-14.312-32.008-31.998-32.008-17.656 0-31.968 14.322-31.968 32.008v15.998h-0.002zM447.988 752.006c0 41.946 32.436 76.032 73.56 79.368 2.14 0.18 4.234 0.648 6.454 0.648h15.998c17.656 0 32-14.352 32-32.008 0-17.688-14.344-32.008-32-32.008-17.686 0-31.998-14.312-31.998-32s-14.312-32-32-32c-17.686 0-32.014 14.312-32.014 32v16zM521.546 447.364c2.14 0.172 4.234 0.64 6.454 0.64h15.998c17.656 0 32-14.312 32-32 0-17.656-14.344-32-32-32-17.686 0-31.998-14.312-31.998-32 0-17.656-14.312-32.016-32-32.016-17.686 0-32.014 14.36-32.014 32.016v16c0.002 41.968 32.436 76.016 73.56 79.36v0zM447.988 560.020c0 41.938 32.436 75.992 73.56 79.33 2.14 0.18 4.234 0.64 6.454 0.64h15.998c17.656 0 32-14.314 32-32 0-17.648-14.344-31.968-32-31.968-17.686 0-31.998-14.352-31.998-32 0-17.688-14.312-32.008-32-32.008-17.686 0-32.014 14.322-32.014 32.008v15.998zM256.010 752.006c0 41.946 32.436 76.032 73.56 79.368 2.14 0.18 4.218 0.648 6.452 0.648h15.968c17.686 0 31.998-14.352 31.998-32.008 0-17.688-14.312-32.008-31.998-32.008-17.656 0-31.968-14.312-31.968-32s-14.358-32-32-32c-17.702 0-32.014 14.312-32.014 32v16h0.002zM329.57 447.364c2.14 0.172 4.218 0.64 6.452 0.64h15.968c17.686 0 31.998-14.312 31.998-32 0-17.656-14.312-32-31.998-32-17.656 0-31.968-14.312-31.968-32 0-17.656-14.358-32.016-32-32.016-17.702 0-32.014 14.36-32.014 32.016v16c0.002 41.968 32.438 76.016 73.562 79.36v0zM256.010 560.020c0 41.938 32.436 75.992 73.56 79.33 2.14 0.18 4.218 0.64 6.452 0.64h15.968c17.686 0 31.998-14.314 31.998-32 0-17.648-14.312-31.968-31.998-31.968-17.656 0-31.968-14.352-31.968-32 0-17.688-14.358-32.008-32-32.008-17.702 0-32.014 14.322-32.014 32.008v15.998h0.002zM160 240.018c17.702 0 32.014-14.36 32.014-32.016 0-17.688-14.312-32-32.014-32-17.64 0-32 14.312-32 32 0 17.656 14.358 32.016 32 32.016v0zM767.99-64h-112.012c-44.17 0-79.98 35.812-79.98 79.984v144.018c0 17.656-14.344 32-32 32h-63.998c-17.686 0-32.014-14.344-32.014-32v-144.018c0-44.172-35.796-79.984-79.998-79.984h-111.98c-70.714 0-128.008 57.312-128.008 128v32.002c0 17.688 14.358 32 32 32 17.702 0 32.014-14.312 32.014-32v-32.002c0-35.344 28.656-64.016 63.998-64.016h103.98c13.266 0 24 10.766 24 24v152.018c0 44.172 35.842 80.016 80.012 80.016h95.996c44.17 0 80.012-35.844 80.012-80.016v-152.018c0-13.234 10.734-24 23.968-24h104.012c35.326 0 63.996 28.672 63.996 64.016v768.022c0 35.336-28.67 63.97-63.996 63.97h-511.98c-35.342 0-63.998-28.634-63.998-63.97v-416.018c0-17.656-14.312-32-32.014-32-17.64 0-32 14.344-32 32v416.018c0 70.682 57.294 127.978 128.010 127.978h511.98c70.668 0 128.010-57.296 128.010-127.978v-768.022c0-70.688-57.342-128-128.010-128v0z" />
<glyph unicode="&#xe90d;" glyph-name="Significon-Bulb" data-tags="Significon-Bulb" d="M352 608c-17.672 0-32 14.328-32 32 0 106.032 85.96 192 192 192 17.672 0 32-14.328 32-32s-14.328-32-32-32c-70.688 0-128-57.312-128-128 0-17.672-14.328-32-32-32v0zM713.344 392.328c0 0 0.79 0.766 0 0-6.122-5.914-9.344-15.21-9.344-24.328v-48c0-70.688-57.312-128-128-128h-160c-17.672 0-32-14.328-32-32s14.328-32 32-32h128c17.672 0 32-14.328 32-32s-14.328-32-32-32h-128c-53.016 0-96 42.984-96 96s42.984 96 96 96h160c35.344 0 64 28.656 64 64v48c0 29.312 13.124 55.562 33.844 73.156-3.376-2.86-2.816-2.286 0 0 57.802 46.896 94.156 118.642 94.156 198.844 0 141.376-114.624 256-256 256-141.382 0-256-114.624-256-256 0-80.042 36.546-151.946 94.148-198.844 2.926-2.382 3.384-2.86 0 0 20.728-17.594 33.852-43.844 33.852-73.156v-16c0-17.672-14.328-32-32-32s-32 14.328-32 32v16c0 9.15-3.186 18.41-9.344 24.328-0.772 0.742 0 0 0 0-72.11 58.688-118.656 147.484-118.656 247.672 0 176.734 143.274 320 320 320 176.718 0 320-143.266 320-320 0-100.188-46.546-188.984-118.656-247.672v0zM480 0h64c17.672 0 32-14.328 32-32s-14.328-32-32-32h-64c-17.672 0-32 14.328-32 32s14.328 32 32 32v0zM672 128c17.672 0 32-14.328 32-32s-14.328-32-32-32-32 14.328-32 32 14.328 32 32 32v0z" />
<glyph unicode="&#xe90e;" glyph-name="Significon-Bullhorn" data-tags="Significon-Bullhorn" d="M986.516 357.484l-0.156 0.156c-5.812-5.938-13.89-9.64-22.86-9.64-17.672 0-32 14.328-32 32 0 9.25 3.984 17.516 10.266 23.36 11.25 11.53 18.234 27.25 18.234 44.64s-6.984 33.094-18.234 44.64c-6.282 5.844-10.266 14.11-10.266 23.36 0 17.672 14.328 32 32 32 8.968 0 17.046-3.704 22.86-9.64l0.156 0.156c23.156-23.172 37.484-55.172 37.484-90.516s-14.328-67.344-37.484-90.516zM832 0c-35.344 0-64 28.656-64 64v0.422c-0.016 0.016-0.032 0-0.046 0.032-22.468 53.25-83.766 99.968-169.5 133.954l0.172 0.438c-13.156 4.704-22.624 17.14-22.624 31.906 0 18.782 15.218 34 34 34 5.438 0 10.516-1.39 15.078-3.672 102.25-38.218 175.624-92.234 201.766-154.156 6.92-16.408 5.154 277.076 5.154 277.076v144c0 0 1.766 277.484-5.156 261.078-51.218-121.376-282.828-213-560.796-213-5.218 0-9.704-0.032-13.844-0.078h-28.204c-17.672 0-32-14.328-32-32s-14.328-32-32-32h-32c-35.344 0-64-28.656-64-64s28.656-64 64-64h32c17.672 0 32-14.328 32-32s14.328-32 32-32h29.922c3.704-0.046 7.64-0.078 12.124-0.078 3.828 0 7.578-0.188 11.39-0.218 44.86-1.578 82.954-29.36 99.36-68.656l97.11-243.048c15.876-39.766-7.062-72-51.234-72h-60.5c-44.188 0-92.89 32.234-108.766 72l-56.094 140.36 0.156 0.062c-1.594 3.75-2.468 7.876-2.468 12.204 0 17.328 14.046 31.376 31.376 31.376 13.624 0 25.124-8.75 29.454-20.89l56.498-139.112c7.188-17.672 27.328-32 45-32h22.672c17.672 0 26.188 14.328 19 32l-78 192c-7.188 17.672-27.328 32-45 32h-68c-30.296 0-56.578 16.89-70.156 41.704-0.062 0.282-0.14 0.546-0.234 0.812-1.938 3.64-3.61 7.438-5.032 11.344-0.766 2.172-2.032 4.218-3.766 5.954-2.876 2.89-6.594 4.438-10.376 4.656 0 0 0 0.016-0.016 0.016-66.202 4.904-118.42 60.060-118.42 127.514s52.218 122.61 118.422 127.516c0.016 0 0.016 0.016 0.016 0.016 3.782 0.218 7.5 1.766 10.376 4.656 1.75 1.734 3 3.782 3.766 5.954 0.016 0.046 0.046 0.046 0.062 0.094 10.874 31.248 40.404 53.764 75.358 53.764h55.61c249.984 0 458.282 82.39 504.344 191.546 0.016 0.016 0.032 0.016 0.046 0.032v0.422c0 35.344 28.656 64 64 64s64-28.656 64-64v-768c0-35.344-28.656-64-64-64zM464 272c0 17.672 14.328 32 32 32s32-14.328 32-32-14.328-32-32-32-32 14.328-32 32z" />
<glyph unicode="&#xe90f;" glyph-name="Significon-Calendar" data-tags="Significon-Calendar" d="M800 128c-17.672 0-32 14.328-32 32s14.328 32 32 32 32-14.328 32-32-14.328-32-32-32v0zM768 448h32c17.672 0 32-14.328 32-32s-14.328-32-32-32h-10.656c-11.782 0-21.344-9.562-21.344-21.344v-10.656c0-17.672-14.328-32-32-32s-32 14.328-32 32v32c0 35.344 28.656 64 64 64v0zM672 256c17.672 0 32-14.328 32-32s-14.328-32-32-32h-10.656c-11.782 0-21.344-9.562-21.344-21.344v-10.656c0-17.672-14.328-32-32-32s-32 14.328-32 32v32c0 35.344 28.656 64 64 64h32zM576 448h32c17.672 0 32-14.328 32-32s-14.328-32-32-32h-10.656c-11.782 0-21.344-9.562-21.344-21.344v-10.656c0-17.672-14.328-32-32-32s-32 14.328-32 32v32c0 35.344 28.656 64 64 64v0zM480 256c17.672 0 32-14.328 32-32s-14.328-32-32-32h-10.656c-11.782 0-21.344-9.562-21.344-21.344v-10.656c0-17.672-14.328-32-32-32s-32 14.328-32 32v32c0 35.344 28.656 64 64 64h32zM384 448h32c17.672 0 32-14.328 32-32s-14.328-32-32-32h-10.656c-11.782 0-21.344-9.562-21.344-21.344v-10.656c0-17.672-14.328-32-32-32s-32 14.328-32 32v32c0 35.344 28.656 64 64 64v0zM224 128c-17.672 0-32 14.328-32 32v32c0 35.344 28.656 64 64 64h32c17.672 0 32-14.328 32-32s-14.328-32-32-32h-10.656c-11.782 0-21.344-9.562-21.344-21.344v-10.656c0-17.672-14.328-32-32-32v0zM992 448c-17.672 0-32 14.328-32 32s14.328 32 32 32 32-14.328 32-32-14.328-32-32-32v0zM896-64h-768c-70.688 0-128 57.312-128 128v448c0 70.688 57.312 128 128 128h800c17.672 0 32 14.328 32 32v32c0 35.344-28.656 64-64 64h-48c-44.188 0-80 35.812-80 80v16c0 17.672-14.328 32-32 32s-32-14.328-32-32v-16c0-44.188-35.812-80-80-80h-224c-44.188 0-80 35.812-80 80v16c0 17.672-14.328 32-32 32s-32-14.328-32-32v-16c0-44.188-35.812-80-80-80h-48c-35.344 0-64-28.656-64-64 0-17.672-14.328-32-32-32s-32 14.328-32 32c0 70.688 57.312 128 128 128h32c17.672 0 32 14.328 32 32 0 53.016 42.984 96 96 96s96-42.984 96-96c0-17.672 14.328-32 32-32h192c17.672 0 32 14.328 32 32 0 53.016 42.984 96 96 96s96-42.984 96-96c0-17.672 14.328-32 32-32h32c70.688 0 128-57.312 128-128v-48c0-44.188-35.812-80-80-80h-816c-35.344 0-64-28.656-64-64v-448c0-35.344 28.656-64 64-64h768c35.344 0 64 28.656 64 64v288c0 17.672 14.328 32 32 32s32-14.328 32-32v-288c0-70.688-57.312-128-128-128v0z" />
<glyph unicode="&#xe910;" glyph-name="Significon-Camera" data-tags="Significon-Camera" d="M896 0h-767.986c-70.694 0-128.014 57.29-128.014 127.964v447.928c0 70.692 57.32 127.966 128.014 127.966h71.984c18.226 0 33.906 10.28 42.024 25.214l0.468 0.312 26.406 46.476-0.71-0.296c7.774 13.53 15.578 27.076 23.11 40.792 29.734 54.118 75.25 80.66 136.538 79.612 61.264 0 106.578 0 167.858 0 60.342 1.046 105.28-24.808 135.014-77.238 3.906-5.296 6.282-11.78 6.282-18.872 0-17.684-14.328-31.994-31.968-31.994-10.828 0-20.36 5.42-26.14 13.638l-0.032-0.032c-24.094 34.198-58.498 51.132-102.842 50.382-49.876 0-81.14 0.078-131.030 0.078-49.89 0.876-86.922-20.372-111.118-63.694-16.734-29.964-33.664-59.632-50.842-89.16-9.672-22.998-32.446-39.182-59.016-39.182h-80c-44.188 0-79.992-35.838-79.992-79.988v-415.962c0-44.15 35.804-79.988 79.992-79.988h736.002c44.186 0 79.998 35.838 79.998 79.988v415.966c0 44.15-51.828 79.988-96.014 79.988-17.64 0-31.968 14.31-31.968 31.996 0 17.638 14.328 31.964 31.968 31.964h16.016c70.702 0 143.998-57.274 143.998-127.966v-447.926c0-70.676-57.312-127.966-128-127.966v0zM335.998 287.926c17.68 0 32-14.31 32-31.994 0-17.638-14.32-31.964-32-31.964-17.648 0-32.006 14.326-32.006 31.964-0.002 17.684 14.358 31.994 32.006 31.994v0zM255.998 383.928c0 141.362 114.616 255.97 256.006 255.97 141.388 0 255.998-114.608 255.998-255.97 0-141.37-114.61-255.962-255.998-255.962-17.68 0-32.008 14.326-32.008 31.994 0 17.686 14.328 32.012 32.008 32.012 106.032 0 191.998 85.91 191.998 191.958 0 106.008-85.966 191.964-191.998 191.964-106.022 0-191.99-85.956-191.99-191.964 0-17.67-14.328-31.996-32.008-31.996s-32.008 14.324-32.008 31.994v0zM768.002 671.892c-17.688 0-32 14.326-32 31.964 0 17.684 14.312 31.996 32 31.996s32-14.31 32-31.996c0-17.638-14.312-31.964-32-31.964v0z" />
<glyph unicode="&#xe911;" glyph-name="Significon-Cart" data-tags="Significon-Cart" d="M1018.468 675.218l-82.796-325.11c-18.296-68.25-70.438-94.14-151.704-94.14h-487.5c-17.672 0-31.984-14.296-31.984-31.984 0-2.422 0.25-4.766 0.75-7.046 0.046-0.11 0-0.156 0-0.282l7.906-40.796c7.172-27.454 32.062-47.89 61.828-47.89h81.016c53 0 95.984-42.984 95.984-95.984 0-53.046-42.984-95.984-95.984-95.984-26.5 0-50.532 10.766-67.922 28.11l0.046 0.046c-5.938 5.796-9.64 13.876-9.64 22.828 0 17.672 14.344 32.016 32.016 32.016 8.954 0 17.032-3.704 22.844-9.688l0.032 0.046c5.812-5.812 13.766-9.36 22.624-9.36 17.64 0 31.984 14.296 31.984 31.984s-14.344 31.984-31.984 31.984h-80.032c-61.532 0-112.796 43.516-125 101.5l-11.454 59.266c-0.954 4.906-1.532 10.016-1.532 15.25 0 44.172 35.812 79.984 80 79.984h521.984c39.156 0 64.75 12.578 73.906 46.704l82.782 325.124c1.61 5.89 3.39 12.062 3.344 18.172-0.376 29.25-19.782 58.016-48.016 58.016h-687.5c-38.86 0-71.204 27.704-78.468 64.422 0 0.046-0.11-0.046-0.156 0l-3.046 15.704c-7.172 27.436-32.062 47.89-61.828 47.89h-49c-17.672 0-31.968 14.296-31.968 31.984 0 17.672 14.296 32.016 31.968 32.016h48.016c61.532 0 112.796-43.516 125-101.5l0.124-0.624c2.924-14.672 15.782-25.876 31.36-25.876 4.484 0 691.5 0 691.5 0 51.516 0 96.078-64.624 96.032-126.032 0-10.422-2.86-20.812-5.532-30.75v0zM223.984 447.984c17.672 0 31.968-14.344 31.968-31.984 0-17.688-14.296-32.016-31.968-32.016-17.688 0-32.032 14.328-32.032 32.016 0.002 17.64 14.344 31.984 32.032 31.984v0zM207.828 704.188c19.032 1.406 35.688-11.828 37.218-29.546l10.828-128.282c1.532-17.688-12.734-33.188-31.766-34.578-19.046-1.406-35.704 11.828-37.172 29.546l-10.89 128.25c-1.484 17.718 12.736 33.218 31.782 34.61v0zM607.954 127.968h128c53.046 0 96.032-42.984 96.032-95.984 0-53.046-42.984-95.984-96.032-95.984-26.5 0-50.516 10.766-67.876 28.11l0.046 0.046c-5.938 5.796-9.64 13.844-9.64 22.828 0 17.672 14.296 32.016 31.968 32.016 8.984 0 17.032-3.704 22.844-9.688l0.078 0.094c5.812-5.812 13.766-9.406 22.578-9.406 17.688 0 32.032 14.296 32.032 31.984s-14.344 31.984-32.032 31.984h-128c-17.64 0-31.984 14.344-31.984 32.016 0 17.688 14.344 31.984 31.986 31.984v0z" />
<glyph unicode="&#xe912;" glyph-name="Significon-Chart-Bar" data-tags="Significon-Chart-Bar" d="M992 192c-17.672 0-32 14.328-32 32v512c0 17.672-14.328 32-32 32h-64c-17.672 0-32-14.328-32-32v-656c0-44.188-35.812-80-80-80h-32c-44.188 0-80 35.812-80 80v336c0 17.672-14.328 32-32 32h-64c-17.672 0-32-14.328-32-32v-336c0-44.188-35.812-80-80-80h-32c-44.188 0-80 35.812-80 80v208c0 17.672-14.328 32-32 32h-64c-17.672 0-32-14.328-32-32v-224c0-35.344-28.658-64-64-64-70.688 0-128 57.312-128 128v800c0 17.672 14.328 32 32 32s32-14.328 32-32v-800c0-35.344 24.656-64 48-64 8.844 0 16 7.156 16 16v224c0 44.188 35.812 80 80 80h96c44.188 0 80-35.812 80-80v-208c0-17.672 14.328-32 32-32s32 14.328 32 32v336c0 44.188 35.812 80 80 80h96c44.188 0 80-35.812 80-80v-336c0-17.672 14.328-32 32-32s32 14.328 32 32v656c0 44.188 35.812 80 80 80h96c44.188 0 80-35.812 80-80v-528c0-17.672-14.328-32-32-32v0zM992 128c17.672 0 32-14.328 32-32s-14.328-32-32-32-32 14.328-32 32 14.328 32 32 32v0z" />
<glyph unicode="&#xe913;" glyph-name="Significon-Chat" data-tags="Significon-Chat" d="M928.016 383.984c-17.672 0-32.016-14.328-32.016-31.968v-16.016c0-44.188-35.83-80-79.986-80-17.484 0-33.64 5.594-46.796 15.11-0.032 0 0 0-0.032 0l-76.124 57.078c-0.89 0.688-1.594 1.218-2.484 1.906-30.75 23.344-50.58 60.312-50.58 101.922v63.968c0 44.188-35.812 80.032-80 80.032h-415.99c-44.188 0-80.032-35.844-80.032-80.032v-224c0-35.032 22.672-64.454 54.064-75.312 1.258-2.954 4.352-4.688 9.946-4.688 23.696 0 64.016-35.796 64.016-79.984v-32.016c0-8.812 7.156-15.984 15.984-15.984 3.39 0 6.516 1.062 9.124 2.86 0.040 0 0-0.032 0-0.032l134.572 100.922c20.094 15.218 45.14 24.234 72.328 24.234h119.986c17.672 0 32-14.312 32-32 0-17.64-14.328-31.968-32-31.968h-112.008c-18.296 0-35.196-6.14-48.64-16.532l-128.556-96.39c-13.172-9.5-29.328-15.094-46.804-15.094-44.188 0-80 35.796-80 79.984v16.032c0 17.64-14.32 32-32 32-3.532 0-4.274 2.062-3.36 5.094-53.464 15.344-92.628 64.484-92.628 122.89v256c0 70.704 57.29 127.984 127.986 127.984h448.010c70.69 0 128.018-57.282 128.018-127.984v-79.984c0-20.984 10.078-39.61 25.656-51.282l77.204-57.906c0.046 0-0.032 0.032 0 0.032 2.594-1.796 5.75-2.844 9.14-2.844 8.828 0 15.984 7.156 15.984 15.984v32c0 44.188 40.312 80 64.002 80 30.86 0 63.984 35.796 63.984 79.984v224c0 44.204-35.796 80-79.986 80h-416.010c-44.188 0-79.994-35.796-79.994-80v-15.984c0-17.672-14.32-32-32.008-32-17.68 0-32 14.328-32 32v32.016c0 70.688 57.322 127.984 128.018 127.984h447.996c70.704 0 128-57.296 128-127.984v-256.016c0-70.688-50.64-128.016-95.984-128.016v0zM671.998 256c17.656 0 32.016-14.328 32.016-32 0-17.688-14.36-32.016-32.016-32.016-17.672 0-32.002 14.328-32.002 32.016 0 17.672 14.33 32 32.002 32v0z" />
<glyph unicode="&#xe914;" glyph-name="Significon-Check" data-tags="Significon-Check" d="M986.546 571.794l-409.962-409.954c-2.030-2.376-3.654-4.982-5.904-7.216l-55.606-55.608c-25.102-25.148-58.092-37.566-91.034-37.394-32.942-0.172-65.948 12.246-91.064 37.394l-71.618 71.588c-2.312 2.294-3.966 4.952-6.044 7.356l-217.884 217.884c-49.906 49.914-49.906 130.856 0 180.762l55.606 55.624c49.938 49.936 130.866 49.936 180.802 0l79.944-79.944c0.328-0.296 0.64-0.344 1.016-0.718 24.976-24.96 81.49-24.96 106.466 0 0.344 0.344 0.64 0.422 0.984 0.718l158.278 158.246c0.266 0.296 0.376 0.704 0.688 1.016 12.512 12.48 32.772 12.48 45.252 0s12.48-32.74 0-45.268l0.11-0.094-169.962-169.946c-0.468-0.406-0.938-0.718-1.42-1.186-43.736-43.736-130.584-43.736-174.32 0-0.516 0.5-0.984 0.78-1.468 1.218l-79.458 79.458c-31.208 31.208-81.802 31.208-113.010 0l-33.020-33.020c-31.178-31.178-31.178-81.754 0-112.972l217.93-217.882c1.936-2.484 3.732-5.092 5.998-7.358l49.032-49c15.776-15.776 36.504-23.508 57.168-23.336 20.666-0.172 41.362 7.56 57.138 23.336l33.016 33.022c2.264 2.264 4.030 4.842 5.966 7.292l409.882 409.876c31.224 31.178 31.224 81.772 0 112.98l-37.752 37.77c-3.726 3.724-6.764 7.466-10.966 11.668-12.48 12.48-12.48 32.74 0 45.22 12.528 12.496 32.772 12.496 45.268 0 4.202-4.202 7.036-7.846 10.886-11.7v0l49.062-49.062c49.938-49.904 49.938-130.864 0-180.77v0zM735.908 733.492c-17.634 0-31.99 14.324-31.99 32.006 0 17.634 14.356 31.99 31.99 31.99 17.682 0 32.006-14.354 32.006-31.99 0-17.682-14.324-32.006-32.006-32.006v0z" />
<glyph unicode="&#xe915;" glyph-name="Significon-Click" data-tags="Significon-Click" d="M512 287.992c0-17.672-14.328-32-32-32s-32 14.328-32 32 14.328 32 32 32 32-14.328 32-32zM937.094 391.086c0 0 0.062 0 0.062-0.016-6.218-2.204-10.656-8.11-10.656-15.078 0-4.25 1.718-8.062 4.422-10.922l36.578-36.578c32.906-32.906 32.906-86.25 0-119.156-7.516-7.5-16.14-13.172-25.282-17.25l-56.782-23.906c-7.656-4.016-12.938-11.954-12.938-21.188 0-2.984 0.546-5.844 1.546-8.484 0.438-1.172 0.766-2.078 0.984-2.766l18.156-43.844c23.688-57.14-3.454-122.656-60.61-146.328-57.14-23.672-122.656 3.468-146.328 60.61l-17.032 41.124c-0.032 0.032-0.11-0.094-0.124-0.046-4.376 9.86-14.234 16.734-25.718 16.734-3.766 0-7.312-0.86-10.61-2.204l-53.968-22.734c-0.046 0-0.062 0-0.11 0-11.078-4.562-23.218-7.062-35.938-7.062-52.328 0-94.75 42.422-94.75 94.75v33.25c0 17.672 14.328 32 32 32s32-14.328 32-32v-32c0-17.672 14.328-32 32-32 3.922 0 7.64 0.844 11.11 2.124l53.296 22.406c0.546 0.218 0.984 0.25 1.562 0.5 46 19.204 98.86-2.5 118.062-48.5 0.016-0.032 0.032-0.062 0.046-0.094l17.296-41.75c10.14-24.5 38.218-36.124 62.718-25.984 24.484 10.14 36.124 38.234 25.968 62.718l-18.734 45.234c-18.296 43.876 1.688 94.094 44.75 113.718l57.984 24.406c0.046 0-0.046 0.032 0 0.032 2 0.782 3.876 1.954 5.484 3.562 6.078 6.094 6.094 15.922 0.046 22.032l-75.266 75.266c-10.078 10.234-16.328 24.218-16.328 39.704 0.010 31.282 25.354 56.634 56.634 56.634h7.376c35.344 0 64 28.656 64 64v320c0 35.344-28.656 64-64 64h-768c-35.344 0-64-28.656-64-64v-320c0-35.344 28.656-64 64-64h288c17.672 0 32 14.328 32 32v149.624c0 49.908 40.468 90.376 90.376 90.376 25.016 0 47.672-10.172 64.032-26.594 0.296-0.296 0.282-0.124 0.5-0.312l170.656-170.656c6.404-6.188 10.436-14.828 10.436-24.438 0-18.782-15.218-34-34-34-9.61 0-18.25 4.032-24.438 10.438l-174.766 174.75c-0.078 0.062 0-0.172-0.124-0.032-4.094 4.218-9.828 6.844-16.172 6.844-12.422 0-22.5-10.062-22.5-22.5v-169.5c0-44.196-35.812-80.008-80-80.008h-304c-70.688 0-128 57.32-128 128.008v320c0 70.688 57.312 128 128 128h768c70.688 0 128-57.312 128-128v-320c0-56.266-36.438-103.774-86.906-120.914z" />
<glyph unicode="&#xe916;" glyph-name="Significon-Cloud-Download" data-tags="Significon-Cloud-Download" d="M703.984 320.010c0-17.656-14.344-32-32.016-32-17.64 0-31.984 14.344-31.984 32 0 17.688 14.344 32 31.984 32 17.672 0 32.016-14.312 32.016-32v0zM799.968 192.012h-34c-8.812 0-16.812-3.562-22.624-9.344 1.156 1.156-5.734-6.188-10.14-10.594l-136.828-136.782c-21.218-21.218-48.5-33.282-76.282-35.124-1.010-0.268-15.386-0.202-16.438 0.094-27.532 1.968-54.562 13.968-75.624 35.032l-68.376 68.376 0.124 0.124c-6.344 6.344-10.296 15.124-10.296 24.844 0 19.406 15.734 35.124 35.11 35.124 9.718 0 18.468-3.968 24.844-10.312l0.046 0.032 79.906-79.906c12.61-12.594 33.062-12.594 45.672 0 0 0 146.546 146.094 144.89 144.438 23.204 23.468 55.438 38 91.046 38h28.968c88.36 0 160.032 71.624 160.032 159.998 0 7.5-0.704 14.782-1.688 22-0.25 1.75-0.5 3.438-0.796 5.156-1.234 7.124-2.796 14.124-4.938 20.938 0 0.032 0 0.124-0.046 0.156-2.218 7.062-5.062 13.898-8.234 20.492-0.376 0.828-0.75 1.61-1.156 2.39-17.062 34.25-45.906 61.61-81.36 76.484-17.422 7.172-29.796 24.312-29.796 44.39 0 50.734-39.39 91.782-89.266 95.328-1.938 0.406-4.11 0.656-6.75 0.656-23.172 0-43.438 18.546-54.656 41.704 0.25-0.5 0.094-0.86 0.094-1.282-39.938 89.264-129.282 151.576-233.422 151.576-141.406 0-256.016-114.608-256.016-255.968 0-35.438-19.172-68.358-47.688-85.014-0.734-0.406-1.188-0.906-1.61-1.406-17.796-10.546-33.376-24.39-45.86-40.796-0.454-0.578-0.906-1.156-1.36-1.766-3.546-4.828-6.89-9.812-9.89-15-0.218-0.376-0.546-0.828-0.75-1.204-3.218-5.688-6.14-11.578-8.656-17.64-0.124-0.282-0.204-0.578-0.328-0.86-2.188-5.398-4.032-10.96-5.64-16.618-0.454-1.688-0.906-3.376-1.328-5.062-1.14-4.532-2.016-9.094-2.75-13.812-0.296-1.844-0.624-3.718-0.876-5.562-0.734-6.344-1.266-12.718-1.266-19.282 0-88.376 71.656-159.998 160.016-159.998h16c8.812 0 17.14 8.216 18 16.998 0 0.032 0.046 0.062 0.046 0.124 0.156 1.188 0.078 2.344 0.282 3.532 9.484 43.062 47.766 75.344 93.688 75.344 17.672 0 31.968 14.344 31.968 32.032v47.968c0 44.21 35.812 80.024 80 80.024h96.016c44.188 0 80-35.812 80-80.024v-16c0-17.688-14.344-31.968-32.016-31.968-17.64 0-31.984 14.282-31.984 31.968s-14.342 32.032-31.982 32.032h-64c-17.688 0-32.016-14.344-32.016-32.032v-47.968c0-44.218-35.828-80.032-80-80.032h-15.984c-9.156 0-17.406-3.876-23.204-10.062-2.64-2.844-4.876-5.968-6.266-9.438-0.046-0.094-0.094-0.218-0.124-0.282-1.406-3.5-1.938-7.124-2.062-10.844-0.078-0.5-0.376-0.78-0.376-1.374 0-35.344-28.64-64-64-64h-31.984c-123.718 0.002-223.984 100.282-223.984 224 0 82.79 45.094 154.79 111.844 193.57 0.046 0.046-0.078 0.124 0 0.172 9.656 5.468 16.124 18.376 16.124 30.282 0 2.796 0.124 5.204 0.36 7.296 3.876 173.342 145.406 312.67 319.656 312.67 131.298 0 244.016-79.124 293.344-192.25 82.376-2.718 148.86-67.624 154.124-149.312 75.876-35.858 128.548-112.92 128.548-202.428 0-123.718-100.312-223.998-224.032-223.998v0z" />
<glyph unicode="&#xe917;" glyph-name="Significon-Cloud-Upload" data-tags="Significon-Cloud-Upload" d="M800 192h-28.984c-35.64 0-67.812 14.546-91.016 38 1.672-1.704 3.124-3.312 4.406-4.876l-149.312 149.312c-12.624 12.61-33.062 12.61-45.672 0l-79.97-79.89c-6.36-6.328-15.124-10.296-24.828-10.296-19.39 0-35.14 15.718-35.14 35.124 0 9.672 3.938 18.484 10.296 24.844l-0.11 0.11 68.408 68.406c21.046 21.078 48.11 32.11 75.672 34.062 2.656 0.734 5.376 1.204 8.25 1.204 2.796 0 5.454-0.468 8.032-1.156 27.782-1.828 55.124-12.844 76.376-34.11l136.798-136.812c4.436-4.438 8.218-9.188 11.78-14.14-0.032 1.204-0.406 2.406-1.61 3.594 5.78-5.814 13.78-9.376 22.624-9.376h34c88.36 0 160 71.64 160 160 0 7.484-0.688 14.796-1.672 22-0.248 1.704-0.516 3.344-0.766 5.016-1.234 7.124-2.766 14.14-4.906 20.954-0.078 0.218-0.14 0.438-0.216 0.61-2.22 6.906-4.986 13.61-8.080 20.078-0.39 0.828-0.828 1.704-1.234 2.5-17.044 34.218-45.86 61.532-81.266 76.406-17.5 7.092-29.86 24.358-29.86 44.436 0 50.688-39.422 91.75-89.204 95.312-1.952 0.438-4.172 0.688-6.796 0.688-23.156 0-43.452 18.546-54.688 41.672 0.25-0.516 0.14-0.906 0.11-1.342-39.968 89.264-129.234 151.67-233.422 151.67-141.376 0-256-114.624-256-256 0-35.422-19.158-68.36-47.704-84.984-0.876-0.5-1.53-1.094-1.968-1.704-0.626-0.376-1.282-0.656-1.86-1.016-0.032 0-0.032-0.078-0.064-0.078-16.906-10.406-31.718-23.812-43.718-39.594-0.36-0.484-0.718-0.922-1.046-1.39-3.532-4.796-6.876-9.704-9.86-14.876-0.328-0.578-0.656-1.094-0.984-1.672-3.204-5.64-6.11-11.422-8.61-17.454-0.156-0.328-0.218-0.718-0.374-1.046-2.14-5.282-4-10.734-5.562-16.296-0.5-1.782-0.938-3.532-1.376-5.312-1.126-4.578-2.078-9.312-2.796-14.032-0.266-1.75-0.546-3.422-0.766-5.172-0.766-6.358-1.312-12.796-1.312-19.374 0-88.36 71.64-160 160-160h32c35.342 0 64-28.656 64-64 0-0.578 0.328-0.844 0.406-1.344 0.14-3.672 0.656-7.344 2.032-10.844 0.030-0.11 0.078-0.218 0.11-0.328 1.422-3.406 3.64-6.546 6.25-9.406 5.86-6.188 14.046-10.078 23.204-10.078h16c44.188 0 80-35.812 80-80v-48c0-17.672 14.328-32 32-32h64c17.672 0 32 14.328 32 32s14.328 32 32 32 32-14.328 32-32v-16c0-44.188-35.812-80-80-80h-96c-44.188 0-80 35.812-80 80v48c0 17.672-14.328 32-32 32-45.922 0-84.188 32.296-93.64 75.344-0.172 1.124-0.11 2.296-0.25 3.422 0 0.11-0.11 0.11-0.11 0.218-0.844 8.796-9.156 17.016-18 17.016h-16c-123.706 0-224.002 100.296-224.002 224 0 82.766 45.094 154.876 111.89 193.594 0.032 0.046-0.078 0.078 0 0.11 9.642 5.53 16.11 18.406 16.11 30.296 0 2.766 0.14 5.156 0.36 7.234 3.89 173.344 145.344 312.766 319.64 312.766 131.282 0 243.968-79.156 293.312-192.25 82.36-2.704 148.876-67.61 154.14-149.312 75.924-35.86 128.548-112.906 128.548-202.438 0-123.704-100.296-224-224-224v0zM672 160c17.672 0 32-14.328 32-32s-14.328-32-32-32-32 14.328-32 32 14.328 32 32 32v0z" />
<glyph unicode="&#xe918;" glyph-name="Significon-Cloud" data-tags="Significon-Cloud" d="M448 704c17.672 0 32-14.328 32-32s-14.328-32-32-32c-70.688 0-128-57.312-128-128 0-17.672-14.328-32-32-32s-32 14.328-32 32c0 106.032 85.968 192 192 192v0zM800 64h-576c-123.704 0-224 100.296-224 224 0 17.672 14.328 32 32 32s32-14.328 32-32c0-88.36 71.64-160 160-160h576c88.36 0 160 71.64 160 160 0 67.094-41.454 124.328-100.032 148.032 0.688-0.218 1.344-0.25 2.032-0.546-17.594 7.14-30 24.376-30 44.516 0 50.688-39.422 91.75-89.204 95.312-1.952 0.436-4.172 0.686-6.796 0.686-23.156 0-43.452 18.516-54.688 41.672 0.25-0.516 0.14-0.906 0.11-1.342-39.968 89.264-129.234 151.67-233.422 151.67-141.376 0-256-114.624-256-256 0-51.64 15.376-99.64 41.704-139.86l-0.11-0.062c3.968-5.344 6.406-11.938 6.406-19.094 0-17.672-14.328-32-32-32-12.844 0-23.812 7.562-28.906 18.468-12.218 19.016-22.578 39.422-30.656 60.906-0.406 1.094-0.796 2.218-1.204 3.312-2.468 6.734-4.718 13.532-6.718 20.468-7.97 27.972-12.516 57.346-12.516 87.862 0 176.734 143.266 320 320 320 131.282 0 243.968-79.156 293.312-192.25 82.36-2.704 148.876-67.61 154.14-149.312 75.924-35.86 128.548-112.906 128.548-202.438 0-123.704-100.296-224-224-224v0zM64 352c-17.672 0-32 14.328-32 32s14.328 32 32 32 32-14.328 32-32-14.328-32-32-32v0z" />
<glyph unicode="&#xe919;" glyph-name="Significon-Cog" data-tags="Significon-Cog" d="M907.454 574.94c0.468 0 0.876 0.266 1.36 0.312 64.608-6.39 115.186-60.906 115.186-127.248 0-66.476-50.64-121.102-115.5-127.382-0.094-0.312-0.296-0.562-0.406-0.876-0.468 0.032-0.844 0.282-1.36 0.282-16.308 0-34.48-2.906-41.23-19.216-6.75-16.344 2.812-30.594 15.312-43.062 0.438-0.438 1.016-0.624 1.484-1 40.872-50.25 38.558-123.938-8.282-170.782-46.796-46.81-120.546-49.186-170.812-8.344-0.75-0.406-1.562-0.562-2.312-0.906-0.328 0.406-0.468 0.876-0.844 1.282-11.578 11.532-26.406 22.344-42.734 15.532-16.356-6.75-19.606-23.562-19.606-41.248 0-1.594 0.438-3.032 0.954-4.468-8.046-63-61.468-111.812-126.672-111.812-66.374 0-120.92 50.532-127.374 115.218-0.704 0.25-1.312 0.656-2.032 0.906 0.032 0.312 0.172 0.594 0.172 0.906 0 16.31-2.89 34.436-19.204 41.186-16.328 6.782-30.594-2.812-43.076-15.312-0.75-0.75-1.124-1.688-1.656-2.562-50.204-39.31-122.672-36.592-168.858 9.624-46.906 46.906-49.204 120.75-8.14 171.032-0.438 0.876-0.672 1.812-1.046 2.75 11.532 11.532 22.296 26.376 15.532 42.688-6.782 16.31-23.624 19.624-41.296 19.624-1.156 0-2.172-0.438-3.266-0.718-62.952 7.994-111.748 61.526-111.748 126.658 0 66.624 50.876 121.264 115.904 127.374 0.188 0.578 0.532 1.094 0.782 1.656 16.078 0.14 33.656 3.156 40.282 19.188 6.75 16.282-2.75 30.468-15.218 42.936-40.954 50.218-38.656 124 8.218 170.874 47.044 47.078 121.342 49.25 171.608 7.672 0.53 0.266 1.076 0.376 1.624 0.61 11.438-11.266 26-21.484 41.984-14.876 16.328 6.766 19.61 23.624 19.61 41.282 0 0.062-0.032 0.094-0.032 0.172 6.482 64.64 60.888 115.108 127.23 115.108 66.734 0 121.438-51.032 127.406-116.186 0.14-0.046 0.218-0.156 0.344-0.188 0-3.828 0.204-7.766 0.688-11.624h-0.454c0-17.656-14.312-32.016-32-32.016-17.64 0-31.968 14.36-31.968 32.016 0 35.36-28.672 64-64.016 64-35.36 0-64-28.64-64-64v-32.016l-0.204-0.266c0.578-21.156-12.874-40.906-34.108-47.218-0.516-0.156-1.062-0.156-1.562-0.312l-0.376-0.5c-14.968-5.032-29.5-11.032-43.438-18.094l-0.922 0.14c-0.546-0.296-0.984-0.734-1.532-1.046-20.704-11.204-45.952-5.594-60.17 12.156l-19.954 19.938c-25.016 25-65.546 25-90.516 0-24.982-25-24.982-65.532 0-90.5l22.624-22.64 0.14-0.954c14.968-14.624 19.282-37.75 8.828-57.062-0.172-0.296-0.406-0.5-0.578-0.812l0.172-1.078c-6.968-13.954-13.062-28.484-18.062-43.484l-0.968-0.75c-0.156-0.562-0.188-1.11-0.344-1.688-6.796-22.844-29.092-36.656-51.936-33.812h-27.072c-35.36 0-64.014-28.672-64.014-64 0-35.32 28.654-64.008 64.014-64.008h31.968l0.954-0.718c20.704 0.032 39.874-13.25 46.092-34.094 0.062-0.188 0.062-0.376 0.094-0.562l1.188-0.876c5.032-14.968 11.062-29.5 18.094-43.436l-0.282-1.938c0.218-0.376 0.484-0.656 0.688-1.032 11.204-20.688 5.594-45.938-12.156-60.156l-19.438-19.468c-24.982-24.968-24.982-65.5 0-90.5 24.968-24.968 65.5-24.968 90.516 0l22.64 22.624 0.938 0.156c14.592 14.562 37.466 18.656 56.544 8.344 0.14-0.062 0.204-0.188 0.344-0.25l2.062 0.312c13.954-6.968 28.484-13.062 43.484-18.062l1.282-1.688c0.204-0.062 0.454-0.062 0.656-0.156 20.906-6.188 34.17-25.438 34.108-46.218l0.204-0.25v-32.028c0-35.344 28.64-64 64-64 35.344 0 64.016 28.656 64.016 64v32.030l0.204 0.25c-0.062 20.782 13.204 40 34.11 46.218 0.234 0.094 0.438 0.094 0.672 0.156l1.266 1.656c14.968 5.032 29.484 11.032 43.434 18.094l2.11-0.312c0.124 0.062 0.204 0.188 0.328 0.25 19.078 10.312 41.954 6.218 56.546-8.344l0.954-0.156 22.64-22.624c24.968-24.968 65.5-24.968 90.516 0 24.984 25 24.984 65.532 0 90.5l-19.454 19.468c-17.75 14.218-23.344 39.468-12.14 60.156 0.204 0.376 0.468 0.688 0.672 1.032l-0.312 2.124c6.968 13.936 13.11 28.28 18.062 43.216l1.25 0.938c0.046 0.188 0.078 0.344 0.11 0.532 6.204 20.844 25.36 34.094 46.062 34.094l0.938 0.718h32.012c35.36 0 64 28.688 64 64.008 0 35.328-28.64 64-64 64h-27.090c-22.876-2.844-45.14 10.968-51.922 33.812-0.172 0.578-0.204 1.156-0.344 1.734l-0.954 0.704c-5.016 14.968-11.062 29.5-18.078 43.406l0.172 1.124c-0.172 0.312-0.406 0.546-0.578 0.844-10.454 19.312-6.14 42.438 8.812 57.062l0.14 0.954 22.64 22.64c24.984 24.968 24.984 65.5 0 90.5-11.876 11.842-29.25 18.608-44.796 19.218-17.688 0-32.016 14.312-32.016 32s14.328 32 32.016 32c2.296 0 4.516-0.218 6.688-0.704 30.094-1.968 60.438-14.328 83.344-37.266 47.012-47 49.246-121.124 7.876-171.39 0.172-0.296 0.204-0.67 0.376-0.984-0.172-0.14-0.344-0.172-0.5-0.344-11.546-11.562-22.344-26.406-15.578-42.766 6.744-16.326 23.602-19.608 41.256-19.608v0zM688.004 736.002c-17.688 0-32 14.344-32 32.016 0 17.64 14.312 31.968 32 31.968 17.64 0 31.968-14.328 31.968-31.968 0-17.672-14.328-32.016-31.968-32.016v0zM399.994 367.996c17.688 0 32.016-14.312 32.016-32s-14.328-31.998-32.016-31.998c-17.672 0-32 14.31-32 31.998s14.328 32 32 32v0zM320.012 448.004c0 106.030 85.966 191.998 191.98 191.998 106.032 0 191.996-85.968 191.996-191.998 0-106.040-85.964-192.006-191.996-192.006-17.672 0-32 14.344-32 32s14.328 32.030 32 32.030c70.704 0 127.984 57.282 127.984 127.976 0 70.686-57.282 127.984-127.984 127.984-70.686 0-128.014-57.296-128.014-127.984 0-17.696-14.328-32.008-31.968-32.008-17.688 0-31.998 14.312-31.998 32.008v0z" />
<glyph unicode="&#xe91a;" glyph-name="Significon-Command" data-tags="Significon-Command" d="M832 576h-640c-106.040 0-192 85.968-192 192s85.96 192 192 192 192-85.968 192-192v-32c0-17.672-14.328-32-32-32s-32 14.328-32 32v32c0 70.688-57.304 128-128 128s-128-57.312-128-128 57.304-128 128-128h640c70.688 0 128 57.312 128 128s-57.312 128-128 128-128-57.312-128-128v-32c0-17.672-14.328-32-32-32s-32 14.328-32 32v32c0 106.032 85.968 192 192 192s192-85.968 192-192-85.968-192-192-192zM192 320h32c17.672 0 32-14.328 32-32s-14.328-32-32-32h-32c-70.696 0-128-57.312-128-128s57.304-128 128-128 128 57.312 128 128v352c0 17.672 14.328 32 32 32s32-14.328 32-32v-352c0-106.032-85.96-192-192-192s-192 85.968-192 192 85.96 192 192 192zM640 416v64c0 17.672 14.328 32 32 32s32-14.328 32-32v-64c0-17.672-14.328-32-32-32s-32 14.328-32 32zM480 320h352c106.032 0 192-85.968 192-192s-85.968-192-192-192-192 85.968-192 192v32c0 17.672 14.328 32 32 32s32-14.328 32-32v-32c0-70.688 57.312-128 128-128s128 57.312 128 128-57.312 128-128 128h-352c-17.672 0-32 14.328-32 32s14.328 32 32 32z" />
<glyph unicode="&#xe91b;" glyph-name="Significon-Comment" data-tags="Significon-Comment" d="M543.996 448h-256.018c-17.648 0-31.968 14.36-31.968 32 0 17.688 14.32 32.016 31.968 32.016h256.018c17.672 0 32-14.328 32-32.016 0-17.64-14.328-32-32-32v0zM704.014 480c0-17.64-14.36-32-32.016-32-17.674 0-32.002 14.36-32.002 32 0 17.688 14.328 32.016 32.002 32.016 17.656 0 32.016-14.328 32.016-32.016v0zM383.994 608.032c0 17.64 14.32 32 32.008 32h319.98c17.688 0 32.016-14.36 32.016-32 0-17.688-14.328-32.016-32.016-32.016h-319.98c-17.688 0-32.008 14.328-32.008 32.016v0zM895.998 192.032h-288.002c-21.594 0-41.5-7.124-57.532-19.14l-202.002-151.5c-0.414-0.312-0.648-0.454-1.124-0.828-16.32-12.86-36.922-20.562-59.36-20.562-53.016-0.002-95.978 42.998-95.978 96.014v64.016c0 17.64-14.328 32-32.008 32h-32.008c-70.694 0-127.984 57.296-127.984 127.984v416c0 17.672 14.328 32 32.008 32 17.648 0 31.968-14.328 31.968-32v-400.016c0-44.156 35.844-80 80.032-80h31.97c44.188 0 80.032-35.796 80.032-79.984v-80c0-17.688 14.32-32 31.968-32 6.79 0 13.072 2.094 18.228 5.704 0.070 0.032 0.070 0.032 0.132 0.062l203.672 152.766c0.032 0.032 0.032 0 0.070 0.032 27.042 20.936 61.026 33.42 97.916 33.42h272.002c44.188 0 79.986 35.844 79.986 80v416.032c0 44.156-35.798 80-79.986 80h-592.020c-17.648 0-31.968 14.312-31.968 32 0 17.64 14.32 31.968 31.968 31.968h608.020c70.706 0 128.002-57.282 128.002-127.984v-448c0-70.688-57.296-127.984-128.002-127.984v0zM159.994 832.032c-17.68 0-32.008 14.312-32.008 32 0 17.64 14.328 31.968 32.008 31.968 17.678 0 32.006-14.328 32.006-31.968 0-17.688-14.328-32-32.006-32v0z" />
<glyph unicode="&#xe91c;" glyph-name="Significon-Compass" data-tags="Significon-Compass" d="M895.962 415.556c0-17.668-14.358-32.038-31.994-32.038-17.684 0-32.010 14.37-32.010 32.038 0 17.7 14.326 32.022 32.010 32.022 17.638 0 31.994-14.322 31.994-32.022v0zM128.054 479.6c0 17.668 14.348 32.022 31.994 32.022 17.684 0 32.002-14.354 32.002-32.022 0-17.7-14.318-32.022-32.002-32.022-17.646 0-31.994 14.322-31.994 32.022v0zM852.706 65.1c-1.906-1.86-3.952-3.548-6.358-4.958-15.31-8.866-34.87-3.58-43.696 11.712-7.748 13.43-4.734 30.050 6.42 39.962l-0.062 0.094c156.346 138.312 199.322 371.956 90.954 559.802-123.712 214.428-397.676 287.916-611.918 164.114-214.232-123.788-287.67-397.974-163.976-612.4 108.378-187.798 331.836-266.57 529.61-200.182l0.328-1.048c14.092 4.676 30.088-0.968 37.806-14.4 8.826-15.292 3.592-34.898-11.702-43.732-4.376-2.502-9.108-3.768-13.842-4.080-224.144-71.236-475.19 19.23-597.59 231.422-141.386 245.040-57.472 558.408 187.364 699.862 244.844 141.488 557.95 57.524 699.296-187.518 123.54-214.206 75.020-480.496-102.634-638.65v0zM512.012 95.34c0-17.668-14.31-32.038-32.002-32.038-17.644 0-31.994 14.37-31.994 32.038 0 17.7 14.35 32.022 31.994 32.022 17.694 0 32.002-14.322 32.002-32.022v0zM512.012 799.816c0 17.668 14.302 32.038 31.986 32.038 17.652 0 32.010-14.37 32.010-32.038 0-17.7-14.358-32.022-32.010-32.022-17.684 0-31.986 14.324-31.986 32.022v0zM721.872 735.774c43.118 0 78.094-35.008 78.094-78.164 0-11.632-2.688-22.546-7.248-32.458l-114.682-229.592c-16.574-26.47-45.242-44.060-78-44.060-25.152 0-47.82 10.412-64.598 27.112l-92.63 92.704c-5.092 5.098-11.872 8.288-19.442 8.288-10.404 0-19.48-6.098-24.354-15.010l-109.386-209.016c-0.93-2.548-1.578-5.254-1.578-8.116 0-13.29 10.724-24.032 23.996-24.032 2.874 0 5.49 0.656 8.076 1.596l169.546 88.856c5.092 3.52 11.224 5.598 17.864 5.598 17.348 0 31.484-14.102 31.484-31.52 0-13.76-8.966-25.314-21.262-29.63l-182.558-91.358c-10.084-4.708-21.214-7.584-33.048-7.584-43.116 0-78.094 35.008-78.094 78.162 0 11.632 2.688 22.546 7.25 32.412l114.798 229.782c16.606 26.392 45.194 43.92 77.876 43.92 25.152 0 47.828-10.414 64.614-27.112l92.622-92.704c5.094-5.098 11.874-8.288 19.434-8.288 10.374 0 19.404 5.958 24.292 14.932l109.496 209.172c0.888 2.548 1.544 5.206 1.544 8.036 0 13.292-10.732 24.016-24.010 24.016-2.86 0-5.484-0.64-8.060-1.58l-169.546-88.858c-5.094-3.518-11.232-5.596-17.864-5.596-17.364 0-31.462 14.102-31.462 31.52 0 13.744 8.936 25.314 21.238 29.614l182.558 91.374c10.090 4.706 21.198 7.584 33.040 7.584v0z" />
<glyph unicode="&#xe91d;" glyph-name="Significon-Compress" data-tags="Significon-Compress" d="M479.598 639.99c17.674 0 32.004-14.328 32.004-32s-14.33-31.998-32.004-31.998-32.004 14.328-32.004 31.998 14.33 32 32.004 32zM990.348 686.674c-0.032-0.032-0.046-0.062-0.080-0.094l-81.45-81.434c-0.062-0.062-0.062-0.124-0.124-0.188-9.376-9.374-9.376-24.56 0-33.936 0.312-0.312 0.406-0.594 0.594-0.906l22.3-22.28-0.204-0.218c13.876-13.876 23.472-32.030 26.754-52.374l1.532-1.53c0-1.282-0.344-2.89-0.906-4.734 0.282-3 0.906-5.906 0.906-8.984 0-53.028-42.99-95.994-96.014-95.994-2.61 0-5.064 0.562-7.612 0.766-2.078-0.39-4.14-0.766-6.11-0.766h-256.040c-37.35 0-73.948 18.060-101.202 45.372-11.564 11.5-27.504 18.624-45.1 18.624h-288.042c-17.674 0-32.004-14.328-32.004-31.998 0-8.89 3.634-16.922 9.478-22.716h-0.008l43.968-43.966c23.66-25.062 23.37-64.466-1.134-89.012l-104.398-104.384c-0.062-0.062-0.070-0.11-0.132-0.188-15.002-15-15.002-39.31 0-54.31 1.118-1.108 1.658-2.124 1.884-3.060l86.662-86.652c0.21-0.188 0.39-0.188 0.61-0.406 14.994-15 39.31-15 54.312 0 0.070 0.062 0.124 0.062 0.196 0.14l107.118 107.104c25.136 22.452 63.61 21.842 87.74-2.282 0.25-0.25 0.454-0.234 0.688-0.438l42.444-42.436c5.782-5.782 13.784-9.376 22.628-9.376 17.674 0 32.004 14.328 32.004 32v191.988c0 17.672 14.33 32 32.004 32 17.676 0 32.006-14.328 32.006-32v-178.272c0-2.624-0.282-5.266-0.594-7.906 0.124-1.952 0.594-3.81 0.594-5.81 0-53.030-42.99-95.996-96.014-95.996-2.016 0-3.908 0.468-5.876 0.594-2.672-0.36-5.298-0.594-7.844-0.594l-1.532 1.532c-20.378 3.282-38.538 12.906-52.43 26.794l-0.204-0.204-22.254 22.25c-0.312 0.188-0.594 0.282-0.906 0.594-9.376 9.376-24.566 9.376-33.942 0-0.062-0.062-0.124-0.062-0.188-0.124l-80.628-80.622c-0.188-0.172-0.368-0.204-0.554-0.39-45.156-45.138-118.354-45.138-163.508 0-0.032 0.032-0.054 0.046-0.086 0.078l-73.262 73.246c-0.632 1.218-1.406 2.406-2.524 3.532-45.148 45.138-45.148 118.338 0 163.474 0.188 0.188 0.218 0.36 0.398 0.546l80.136 80.122c0.054 0.062 0.054 0.124 0.118 0.188 9.376 9.376 9.376 24.562 0 33.936-0.312 0.312-0.406 0.594-0.594 0.89l-22.3 22.296 0.21 0.218c-13.876 13.874-23.488 32.030-26.754 52.372l-1.54 1.532c0 1.266 0.336 2.876 0.906 4.734-0.282 3-0.906 5.906-0.906 8.984 0 53.012 42.99 95.994 96.014 95.994 2.61 0 5.056-0.562 7.61-0.764 2.072 0.39 4.142 0.764 6.11 0.764h256.038c6.782 0 13.534-0.78 20.222-1.936 29.958-5.14 58.478-21.046 80.792-43.342l0.032 0.032c11.58-11.592 27.582-18.75 45.258-18.75h288.044c17.674 0 32.004 14.328 32.004 31.998 0 8.876-3.624 16.906-9.468 22.718v0l-43.976 43.966c-23.644 25.060-23.348 64.464 1.14 89.010l105.124 105.104c0.188 0.218 0.188 0.39 0.406 0.594 13.392 13.39 14.752 34.154 4.252 49.13l-94.080 94.044c-0.062 0.062-0.11 0.062-0.188 0.132-15.002 15-39.318 15-54.304 0-0.218-0.21-0.39-0.226-0.61-0.398l-106.86-106.846c-25.128-22.452-63.604-21.842-87.732 2.282-0.25 0.25-0.454 0.234-0.688 0.438l-42.444 42.436c-5.782 5.788-13.784 9.374-22.628 9.374-17.674 0-32.004-14.328-32.004-31.998v-63.998c0-17.67-14.33-31.998-32.004-31.998s-32.004 14.328-32.004 31.998v50.28c0 2.624 0.282 5.256 0.594 7.89-0.124 1.968-0.594 3.828-0.594 5.828 0 53.012 42.992 95.996 96.014 95.996 2.018 0 3.908-0.468 5.876-0.594 2.672 0.36 5.296 0.594 7.844 0.594l1.534-1.54c20.376-3.274 38.538-12.89 52.43-26.788l0.204 0.21 22.268-22.256c0.296-0.188 0.578-0.282 0.89-0.594 9.376-9.374 24.566-9.374 33.944 0 0.062 0.062 0.124 0.054 0.188 0.118l80.964 80.95c0.016 0.032 0.046 0.040 0.078 0.070 45.164 45.138 118.362 45.138 163.51 0 0.188-0.188 0.36-0.218 0.546-0.39l80.23-80.214c40.942-45.376 39.942-115.152-3.766-158.87z" />
<glyph unicode="&#xe91e;" glyph-name="Significon-Computer" data-tags="Significon-Computer" d="M896 416c0-17.672-14.328-32-32-32s-32 14.328-32 32 14.328 32 32 32 32-14.328 32-32v0zM896 128h-160c-17.672 0-32 14.328-32 32s14.328 32 32 32h160c35.344 0 64 28.656 64 64v576c0 35.344-28.656 64-64 64h-768c-35.344 0-64-28.656-64-64v-352c0-17.672 14.328-32 32-32h640c17.672 0 32-14.328 32-32s-14.328-32-32-32h-656c-38.688 0-70.946 27.484-78.368 64h-1.632v384c0 70.688 57.312 128 128 128h768c70.688 0 128-57.312 128-128v-576c0-70.688-57.312-128-128-128v0zM448 288c0 17.672 14.328 32 32 32s32-14.328 32-32-14.328-32-32-32-32 14.328-32 32v0zM32 320c17.672 0 32-14.328 32-32v-32c0-35.344 28.656-64 64-64h448c35.344 0 64-28.656 64-64 0-70.688 63.312-128 96-128 17.672 0 32-14.328 32-32s-14.328-32-32-32h-448c-17.672 0-32 14.328-32 32s14.328 32 32 32c18.398 0 47.782 19.454 69.204 49.454 5.742 8.764 15.562 14.546 26.796 14.546 17.672 0 32-14.328 32-32 0-1.126-0.218-2.188-0.33-3.268 0.29-3.138-0.834-6.952-3.452-11.53-0.658-1.234-1.312-2.468-2.11-3.612-0.040-0.030-0.040-0.108-0.070-0.138-3.312-4.688-6.914-9.094-10.508-13.454h223.844c-0.468 0.578-1 1.094-1.484 1.704-0.078 0.078-0.11 0.156-0.172 0.216-2.876 3.564-5.532 7.236-8.188 11.018-0.11 0.188-0.296 0.376-0.406 0.546-10.75 15.532-19.75 32.844-26.218 51.5-4.718 13.704-8.032 28.14-9.704 43.046 0.032-0.174 0-0.39 0.032-0.58-1.672 11.646-11.672 20.552-23.734 20.552h-425.5c-70.688 0-128 57.312-128 128v32c0 17.672 14.328 32 32 32v0z" />
<glyph unicode="&#xe91f;" glyph-name="Significon-CreditCard" data-tags="Significon-CreditCard" d="M160.016 128.002c-17.672 0-32.016 14.344-32.016 32s14.344 32 32.016 32h63.97c17.672 0 32.016-14.344 32.016-32s-14.344-32-32.016-32h-63.97zM351.988 128.002c-17.64 0-31.986 14.344-31.986 32s14.344 32 31.986 32h64c17.688 0 32.032-14.344 32.032-32s-14.344-32-32.032-32h-64zM512.020 160.002c0 17.656 14.29 32 31.976 32s32.032-14.344 32.032-32-14.344-32-32.032-32-31.976 14.344-31.976 32v0zM287.986 767.998h656.014c44.188 0 80-35.812 80-80v-239.97c0-70.71-57.282-128.024-128-128.024h-32.002c-17.656 0-32-14.346-32-32.002v-224.002c0-70.688-57.282-128-127.968-128h-576.030c-70.688 0-128 57.312-128 128v384.028c0 70.672 57.312 128 128 128h576.028c53.906 0 99.532-33.546 118.438-80.782 0.906-1.64 1.656-3.376 2.282-5.14 0-0.046 0.032-0.094 0.032-0.124 1.032-3.14 1.718-6.468 1.718-9.968 0-17.688-14.344-31.984-32-31.984-13.782 0-25.438 8.782-29.938 21.016l-0.376-0.124c-8.688 24.968-32.218 43.11-60.156 43.11h-576.028c-35.36 0-64-28.688-64-64v-384.032c0-35.344 28.642-64 64-64h576.028c35.312 0 63.968 28.656 63.968 64v240.034c0 44.19 35.844 80.002 80.032 80.002h47.972c35.344 0 64 28.624 64 63.992v159.986c0 17.672-14.312 32.016-32 32.016h-655.998c-44.188 0-80 35.812-80 80v111.97c0 70.72 57.328 128 128 128h575.998c53.906 0 99.562-33.5 118.468-80.736 0.906-1.64 1.656-3.376 2.282-5.14 0-0.046 0.032-0.094 0.032-0.124 1.032-3.14 1.75-6.468 1.75-9.984 0-17.672-14.344-32.016-32.032-32.016-13.812 0-25.438 8.782-29.938 21.062l-0.376-0.124c-8.686 25.014-32.218 43.062-60.186 43.062h-575.998c-35.36 0-64-28.642-64-64v-31.984c0-17.674 14.344-32.018 31.984-32.018v0z" />
<glyph unicode="&#xe920;" glyph-name="Significon-Dashboard" data-tags="Significon-Dashboard" d="M128 480c0 17.672 14.328 32 32 32s32-14.328 32-32-14.328-32-32-32-32 14.328-32 32zM240 704c0 17.672 14.328 32 32 32s32-14.328 32-32-14.328-32-32-32-32 14.328-32 32zM480 800c0 17.672 14.328 32 32 32s32-14.328 32-32-14.328-32-32-32-32 14.328-32 32zM774.376 694.89c12.718-12.704 12.718-33.312 0-46.016l-207.064-207.078c-12.718-12.704-33.312-12.704-46.016 0-12.71 12.704-12.71 33.312 0 46.016l207.064 207.078c12.718 12.704 33.312 12.704 46.016 0zM864 512c17.672 0 32-14.328 32-32s-14.328-32-32-32-32 14.328-32 32 14.328 32 32 32zM416 192h192c17.672 0 32-14.328 32-32s-14.328-32-32-32h-192c-17.672 0-32 14.328-32 32s14.328 32 32 32zM512-64c-141.094 0-268.852 57.094-361.46 149.406-6.43 5.86-10.54 14.218-10.54 23.594 0 17.672 14.328 32 32 32 9.094 0 17.258-3.828 23.078-9.922l0.14 0.14c81.072-81.078 193.072-131.218 316.782-131.218 247.422 0 448 200.578 448 448s-200.578 448-448 448-448-200.578-448-448c0-29.61 3.406-58.344 9.102-86.25 9.054-24.36 32.398-41.75 59.898-41.75h255c8.032 0 15.14 3.938 19.5 10 0.164 0.234 0.43 0.376 0.75 0.454 23.218 32.328 60.906 53.546 103.75 53.546s80.532-21.218 103.75-53.546c0.328-0.078 0.594-0.218 0.75-0.454 4.36-6.062 11.468-10 19.5-10h164c17.672 0 32-14.328 32-32s-14.328-32-32-32h-168.5c-27.282 0-51.328 13.704-65.766 34.562-11.39 17.672-31.14 29.438-53.734 29.438s-42.344-11.766-53.734-29.438c-14.438-20.858-38.476-34.562-65.766-34.562h-259.5c-59.938 0-109.882 41.36-123.804 96.984-5.828 30.812-9.196 62.5-9.196 95.016 0 282.782 229.226 512 512 512 282.766 0 512-229.218 512-512 0-282.766-229.234-512-512-512z" />
<glyph unicode="&#xe921;" glyph-name="Significon-Delete" data-tags="Significon-Delete" d="M799.718 365.652l22.656-22.672c12.516-12.516 12.516-32.796 0-45.312s-32.796-12.516-45.312 0l-67.984 67.984c-50.062 50.062-50.062 131.21 0 181.274l67.984 67.984c12.516 12.516 32.796 12.516 45.312 0s12.516-32.812 0-45.312l-67.984-67.984c-25.032-25.032-25.032-65.618 0-90.648l45.328-45.314zM511.782 546.926l-22.656 22.672c-5.906 5.89-8.796 13.562-9.124 21.296v2.718c0.328 7.734 3.218 15.39 9.124 21.296 12.516 12.516 32.812 12.516 45.312 0l67.984-67.984c50.062-50.062 50.062-131.21 0-181.274l-67.984-67.984c-12.5-12.516-32.796-12.516-45.312 0s-12.516 32.796 0 45.312l67.984 67.984c25.032 25.032 25.032 65.618 0 90.648l-45.328 45.316zM896 64.042h-507.546c-18.454-0.64-36.984 2.672-54.234 10.046-0.094 0.032-0.172 0.078-0.266 0.11-3.484 1.5-6.922 3.14-10.296 4.968-1.734 0.938-3.39 2-5.094 3-1.61 0.984-3.25 1.89-4.828 2.938-8.672 5.718-16.546 12.5-23.578 20.094l-253.268 253.266c-24.724 24.726-36.88 57.13-36.89 89.536-0.010 32.432 12.146 64.868 36.89 89.612l144.766 144.766 0.218-0.218c5.782 5.796 13.782 9.376 22.624 9.376 17.672 0 32-14.328 32-32 0-11.094-5.64-20.86-14.218-26.594l-140-140c-24.656-24.656-24.656-64.648 0-89.32l254.656-254.64c11.704-12.782 28.376-20.938 47.062-20.938h512c35.344 0 64 28.656 64 64v511.992c0 35.344-28.656 64-64 64h-415.998c-17.672 0-32 14.328-32 32s14.328 32 32 32h416c70.688 0 128-57.312 128-128v-511.992c0-70.688-57.312-128.002-128-128.002zM352 752.036c-17.672 0-32 14.328-32 32s14.328 32 32 32 32-14.328 32-32-14.328-32-32-32z" />
<glyph unicode="&#xe922;" glyph-name="Significon-Discount" data-tags="Significon-Discount" d="M479.992 319.998c-17.656 0-32.008 14.36-32.008 32.016 0 17.688 14.352 32 32.008 32 17.688 0 32-14.312 32-32 0-17.656-14.312-32.016-32-32.016v0zM256 543.994c0 17.688 14.312 32 32 32s32.008-14.314 32.008-32c0-17.656-14.32-31.97-32.008-31.97s-32 14.314-32 31.97v0zM502.376 566.886c12.524-12.516 12.524-32.798 0-45.314l-191.914-191.95c-12.524-12.484-32.828-12.484-45.352 0-12.524 12.516-12.524 32.828 0 45.344l191.954 191.918c12.522 12.518 32.796 12.518 45.312 0.002v0zM896 448.008c0-17.68-14.312-31.992-32-31.992s-32 14.312-32 31.992c0 17.656 14.312 32.016 32 32.016s32-14.36 32-32.016v0zM987.11 358.436l-253.376-253.38c-7.078-7.64-15.032-14.422-23.796-20.172-0.328-0.218-0.672-0.36-0.968-0.578-6.312-4.078-12.984-7.64-19.984-10.546-1.438-0.61-2.906-1.032-4.376-1.61-5.922-2.188-11.906-4.124-18.188-5.422-2.234-0.468-4.454-0.718-6.672-1.078-4.922-0.75-9.938-1.25-15.032-1.422-2.376-0.078-4.594-0.266-6.968-0.218h-509.766c-70.68-0.002-127.984 57.294-127.984 128.016v511.986c0 70.69 57.304 127.988 127.984 127.988h416.016c17.688 0 32-14.312 32-31.968 0-17.688-14.312-32-32-32h-416.016c-35.344 0-63.976-28.672-63.976-64.018v-511.988c0-35.376 28.632-64.016 63.976-64.016h512.032c18.718 0 35.406 8.188 47.11 21l254.594 254.6c24.64 24.64 24.64 64.648 0 89.29l-140.032 140.034c-8.546 5.75-14.172 15.5-14.172 26.594 0 17.656 14.312 32 32 32 8.828 0 16.828-3.624 22.594-9.406l0.218 0.218 144.782-144.768c24.734-24.72 36.89-57.136 36.89-89.556s-12.156-64.846-36.89-89.58v0zM672.016 752.014c-17.688 0-32 14.33-32 32.016 0 17.658 14.312 32 32 32 17.656 0 32-14.344 32-32 0-17.688-14.344-32.016-32-32.016v0z" />
<glyph unicode="&#xe923;" glyph-name="Significon-Dislike" data-tags="Significon-Dislike" d="M896.008 319.992h-120.010c-13.25 0-23.998-10.766-23.998-24 0-2.984 0.532-5.844 1.532-8.5 0-0.032 0-0.032 0-0.078 9.28-26.796 14.466-55.11 14.466-79.438v-143.984c0-70.718-57.308-127.992-128.008-127.992-70.716 0-128.002 57.274-128.002 127.992 0 44.344-16.716 86.078-42.514 124.468-3.764 5.312-5.982 11.766-5.982 18.766 0 18.078 14.67 32.766 32.748 32.766 10.154 0 19.092-4.718 25.13-12l0.124 0.124c32.124-40.484 54.496-80.312 54.496-116.156v-47.968c0-35.344 28.624-64 63.998-64 35.358 0 63.98 28.656 63.98 64v127.984c0 20.954-3.032 41.328-11.5 65.516-3.218 9.578-5 19.812-5 30.5 0 53.032 42.998 96 96.028 96h80.496c53.012 0 95.978 42.954 95.978 95.984v223.992c0 106.054-85.918 192.024-191.974 192.024h-164.006c-88.050 0-163.398-87.868-259.626-117.79-14.39-8.328-24.36-23.43-24.36-41.226v-336.984c0-20.344-7.834-38.656-20.318-52.766-3.624-4.124-7.672-7.86-12.046-11.172-0.032-0.032-0.11-0.094-0.14-0.124-4.094-3.094-8.544-5.688-13.202-7.938-0.438-0.218-0.828-0.5-1.296-0.718-4.422-2.032-9.11-3.516-13.922-4.734-0.688-0.14-1.36-0.468-2.046-0.64-5.484-1.218-11.156-1.906-17.044-1.906h-112.004c-70.694-0.002-127.986 57.296-127.986 127.974v320.008c0 70.718 57.292 128.016 127.986 128.016h31.998c17.686 0 31.998-14.32 31.998-32.008s-14.312-32-31.998-32h-31.998c-35.342 0-64.014-28.672-64.014-64.008v-320.008c0-35.336 28.672-63.976 64.014-63.976h96.002c17.656 0 31.998 14.312 31.998 31.968v329.516c0 42.054 25.092 78.040 60.964 94.398 97.598 27.344 168.384 120.126 289.040 120.126h162.008c136.914 0 248.346-107.562 255.314-242.758 0.468-4.376 0.688-8.79 0.688-13.274v-256c0-70.678-57.308-127.976-127.992-127.976v0zM415.986 319.992c17.67 0 31.998-14.344 31.998-32 0-17.688-14.328-32-31.998-32-17.656 0-32.014 14.312-32.014 32 0 17.656 14.358 32 32.014 32v0z" />
<glyph unicode="&#xe924;" glyph-name="Significon-Download" data-tags="Significon-Download" d="M192 96c0 17.672 14.328 32 32 32s32-14.328 32-32-14.328-32-32-32-32 14.328-32 32v0zM320 96c0 17.672 14.328 32 32 32s32-14.328 32-32-14.328-32-32-32-32 14.328-32 32v0zM896-64h-768c-70.688 0-128 57.312-128 128v128c0 70.686 57.312 128 128 128h770.36c21.36 0 33.828 17.094 28.046 37.672l-53.828 191.234c-4.25 15.124-21.954 27.094-39.64 27.094h-130.938c-7.812 0-14.938-2.906-20.468-7.594l-85.124-85.14c-21.204-21.188-48.438-32.218-76.156-34.062-2.65-0.736-5.376-1.204-8.252-1.204-17.672 0-32 14.328-32 32s14.328 32 32 32v0.14c8.36-0.062 16.718 3.062 23.094 9.422l85.312 85.312c-1.282-1.562-2.734-3.172-4.406-4.876 23.204 23.454 55.376 38 90.984 38h110c44.22 0 97.922-25.344 122.518-103.968l49.076-181.046c1.486-6.11 2.406-12.438 2.406-18.984 0-44.188-35.782-80-80-80h-782.984c-35.344 0-64-28.656-64-64v-128c0-35.344 28.656-64 64-64h768c35.344 0 64 28.656 64 64v96c0 17.672 14.328 32 32 32s32-14.328 32-32v-96c0-70.688-57.312-128-128-128v0zM451.742 544.624c0-19.39-15.704-35.14-35.124-35.14-19.382 0-35.124 15.75-35.124 35.14 0 19.406 15.742 35.124 35.124 35.124 19.422 0.002 35.124-15.716 35.124-35.124v0zM736 672c-17.672 0-32 14.328-32 32 0 1.64-0.25 3.204-0.468 4.734-0.156 1.046-0.376 2.062-0.624 3.078-0.796 3.172-2.032 6.158-3.704 8.876-0.438 0.736-0.922 1.422-1.422 2.11-5.814 7.968-15.158 13.202-25.782 13.202h-16c-44.188 0-80 35.812-80 80v48c0 17.672-14.328 32-32 32h-64c-17.672 0-32-14.328-32-32v-48c0-44.188-35.82-80-80-80h-16c-9.164 0-17.344-3.89-23.204-10.078-2.618-2.876-4.836-6-6.25-9.406-0.040-0.11-0.080-0.218-0.11-0.328-3.642-9.172-2.766-19.562 2.29-28.188 0.11-0.296-0.11-0.406 0.148-0.766 7.344-11.266 11.632-24.766 11.632-39.234 0-39.782-32.25-72-72-72h-71.96c-17.672 0-35.454-11.968-39.86-27.094l-41.484-143.484c-0.11-0.516-0.11-0.984-0.258-1.5-4.218-15.844-20.47-25.234-36.328-20.984-15.82 4.218-25.196 20.516-20.946 36.328 0.368 1.312 0.876 2.516 1.382 3.718l30.984 113.046c24.84 78.626 78.76 103.97 122.948 103.97h29.016c13.274 0 24 10.734 24 24 0 2.844-0.468 5.532-1.382 8.032-0.29 0.844 0.040 1.172 0.618 1.234-4.546 16.766-5.852 34.266-2.876 51.392 9.46 43.046 47.71 75.342 93.64 75.342 17.672 0 32 14.328 32 32v48c0 44.188 35.82 80 80 80h96c44.188 0 80-35.812 80-80v-48c0-17.672 14.328-32 32-32 53.016 0 96-42.984 96-96 0-17.672-14.328-32-32-32v0z" />
<glyph unicode="&#xe925;" glyph-name="Significon-Edit" data-tags="Significon-Edit" d="M527.984 688c0 17.688 14.328 32 32.016 32 17.672 0 32-14.312 32-32 0-17.64-14.328-31.968-32-31.968-17.688 0-32.016 14.328-32.016 31.968v0zM987.094 685.484l-13.484-13.468c-0.124-0.14-0.234-0.14-0.376-0.266-24.562-24.578-64.078-24.844-89.156-1.094l-82.468 82.516c-12.484 12.484-12.484 32.75 0 45.234s32.75 12.484 45.234 0l69.688-69.64c0.062-0.078 0.094 0 0.172-0.078 6.234-6.234 16.36-6.234 22.594 0 0.204 0.204 0.376 0.046 0.578 0.14l1.938 1.938c25.016 24.984 25.016 65.5 0 90.516l-56.546 56.546c-25.016 25.016-65.532 25.016-90.516 0l-109.796-109.796h-540.956c-44.188 0-80-35.844-80-80.032v-607.984c0-44.188 35.812-80 80-80h607.984c44.204 0 80 35.812 80 80v411.516c0 8.812-7.156 15.984-15.984 15.984-4.406 0-8.422-1.796-11.296-4.688-0.078-0.062-0.046 0.204-0.11 0.172l-177.812-177.782c-19.266-19.282-43.156-30.954-68.11-35.36-4.718-1.124-9.61-1.828-14.656-1.828h-4.516c-2.11-0.046-4.282-0.046-6.39 0h-117.124c-35.328 0-63.968 28.64-63.968 63.968v117.124c-0.032 2.11-0.032 4.282 0 6.376v4.516c0 5.062 0.718 9.954 1.828 14.672 4.422 24.938 16.094 48.876 35.376 68.14l67.968 67.984 0.172-0.172c5.766 5.812 13.812 9.376 22.64 9.376 17.688 0 32-14.328 32-32.016 0-9.704-4.438-18.328-11.266-24.188l-66.25-66.25c-13.954-13.922-19.812-32.624-18.218-50.844-0.032-0.922-0.282-1.796-0.282-2.718v-47.984c-0.002-35.326 28.686-64.014 64.014-64.014h47.984c0.922 0 1.796 0.234 2.718 0.266 18.234-1.594 36.922 4.282 50.844 18.234l205.5 205.5c11.546 11.344 27.422 16.016 44.938 16.016 35.36 0 64.016-28.64 64.016-64v-463.984c0-70.704-57.296-128.032-127.984-128.032h-640c-70.704 0-128.016 57.328-128.016 128.032v639.984c0 70.702 57.312 127.984 128.016 127.984h530.376l91.094 91.094c24.99 25 57.748 36.906 90.508 36.906s65.522-11.906 90.522-36.906l56.578-56.578c25.026-25.026 36.94-58.254 36.906-91.058-0.034-32.714-11.948-65.006-36.906-89.974v0z" />
<glyph unicode="&#xe926;" glyph-name="Significon-Eject" data-tags="Significon-Eject" d="M1023.992 383.968c0-70.672-57.32-127.968-127.992-127.968h-768.024c-35.336 0-64.006-28.672-64.006-64.016v-64c0-35.344 28.67-64.016 64.006-64.016h768.024c35.344 0 63.968 28.672 63.968 64.016v32c0 17.688 14.344 32 32 32 17.688 0 32-14.312 32-32v-32c0-70.688-57.296-127.984-127.968-127.984h-768.024c-70.68 0-127.976 57.296-127.976 127.984v64c0 70.688 57.296 127.984 127.976 127.984h768.024c35.344 0 63.968 28.672 63.968 64h0.218c0.062 24.734-9.312 49.484-28.172 68.352l-351.714 351.688c-37.61 37.594-98.562 37.594-136.124 0l-309.27-309.25c-5.852-6.032-13.992-9.796-23.040-9.796-17.758 0-32.148 14.39-32.148 32.156 0 9.688 4.382 18.266 11.196 24.172l307.912 307.92c31.258 31.26 72.206 46.73 113.174 46.79 41.124 0.060 82.272-15.408 113.66-46.79l351.558-351.578c30.188-30.172 45.718-69.382 46.782-108.914-0.032-1.376-0.032-2.876-0.032-4.75h0.024zM31.968 383.968c-17.656 0-31.968 14.36-31.968 32.016 0 17.688 14.312 31.992 31.968 31.992 17.688 0 32-14.304 32-31.992 0-17.656-14.312-32.016-32-32.016v0z" />
<glyph unicode="&#xe927;" glyph-name="Significon-End" data-tags="Significon-End" d="M928.028 0h-64.016c-53.018 0-96.004 42.984-96.004 95.968v208.532c0 35.094 14.124 66.876 36.986 89.984 0.718 0.718 1.188 1.328 1.766 1.968l6.124 6.14c25.218 25.218 25.218 66.094 0 91.282l-319.51 319.502c-12.516 12.516-28.954 18.796-45.392 18.828v-0.218c-35.33 0-63.97-28.656-63.97-64v-48.516c0-17.172 6.89-32.718 17.876-44.204l136.16-136.156c50.346-50.328 50.346-131.922 0-182.266l-318.932-318.89c-25.158-25.188-58.174-37.734-91.144-37.734v-0.22c-70.674 0-127.972 57.296-127.972 127.984v640c0 70.672 57.298 128.016 127.972 128.016 17.688 0 32.016-14.36 32.016-32 0-17.688-14.328-32.016-32.016-32.016-35.344 0-63.97-28.656-63.97-64v-640c0-35.344 28.626-64.016 63.97-64.016 18.376 0 34.814 7.828 46.47 20.204l318.432 318.422c25.22 25.218 25.22 66.094 0 91.282l-137.786 137.766c-21.704 22.968-35.080 53.782-35.080 87.828v48.514c0 70.672 57.298 128.016 127.972 128.016v-0.25c32.986 0 65.986-12.562 91.142-37.718l318.932-318.922c50.314-50.328 50.314-131.922 0-182.266l-8.14-8.14c-10.984-11.484-17.906-27.016-17.906-44.204v-192.532c0-26.516 21.5-48 48.002-48h32.016c26.518 0 48.002 21.484 48.002 48v672.016c0 26.516-21.484 48-48.002 48h-48.016c-16.002 0-32.002-21.484-32.002-48v-48c0-17.656-14.312-32.016-32.002-32.016-17.656 0-32 14.36-32 32.016v64c0 53.032 42.986 96.016 96.004 96.016h64.016c52.988 0 95.974-42.984 95.974-96.016v-704.016c0-52.984-42.986-95.968-95.972-95.968v0zM223.992 767.984c-17.658 0-32 14.312-32 32s14.344 32 32 32c17.688 0 32-14.312 32-32s-14.312-32-32-32v0zM380.136 92.234c9.156 0 17.376-3.876 23.22-10 11.516-11.266 27.266-18.266 44.626-18.266 18.376 0 34.814 7.828 46.47 20.204l154.708 154.64c5.812 5.812 13.86 9.438 22.718 9.438 17.768 0 32.112-14.39 32.112-32.156 0-8.86-3.624-16.89-9.39-22.704l-155.474-155.438c-25.156-25.188-58.158-37.734-91.142-37.734v-0.218c-34.25 0-65.33 13.562-88.3 35.516-7.094 5.89-11.688 14.64-11.688 24.578 0 17.766 14.39 32.14 32.14 32.14v0z" />
<glyph unicode="&#xe928;" glyph-name="Significon-Exchange" data-tags="Significon-Exchange" d="M987.878 296.234l-131.782-131.656c-22.586-22.562-51.718-34.484-81.29-36.032-1.93-0.328-4.102-0.546-6.812-0.546-35.344 0-64 28.656-64 64v32c0 17.672-14.328 32-32 32h-256c-17.672 0-32 14.328-32 32s14.328 32 32 32h272c44.18 0 80-35.812 80-80v-15.5c0-13.25 10.742-24 24-24 6.054 0 11.524 2.312 15.742 6 1.32 1.124 2.758 2.032 4 3.266l130.492 130.484c24.024 24.032 24.024 62.984 0 87l-130.492 130.5c-2.040 2.032-4.304 3.656-6.54 5.344-3.828 2.578-8.226 4.406-13.204 4.406-13.258 0-24-10.75-24-24v-15.5c0-44.188-35.82-80-80-80h-336c-17.672 0-32-14.328-32-32v-32c0-35.344-28.656-64-64-64-2.71 0-4.882 0.218-6.812 0.562-29.57 1.532-58.704 13.454-81.29 36.032l-131.782 131.64c-24.244 24.226-36.102 55.98-36.108 87.736-0.006 31.776 11.85 63.552 36.114 87.794l131.782 131.64c22.586 22.578 51.71 34.484 81.282 36.032 1.93 0.344 4.102 0.562 6.82 0.562 35.344 0 64-28.656 64-64v-32c0-17.672 14.328-32 32-32h96c17.672 0 32-14.328 32-32s-14.328-32-32-32h-112c-44.18 0-80 35.812-80 80v15.5c0 13.25-10.742 24-24 24-6.046 0-11.524-2.312-15.742-6-1.32-1.124-2.75-2.032-4-3.266l-130.492-130.484c-24.024-24.032-24.024-62.984 0-87l130.492-130.5c2.040-2.032 4.304-3.656 6.54-5.344 3.828-2.594 8.226-4.406 13.204-4.406 13.258 0 24 10.75 24 24v15.502c0 44.188 35.82 80 80 80h336c17.672 0 32 14.328 32 32v32c0 35.344 28.656 64 64 64 2.71 0 4.882-0.218 6.812-0.562 29.57-1.546 58.704-13.454 81.29-36.032l131.782-131.64c24.256-24.234 36.116-56 36.116-87.766s-11.86-63.532-36.122-87.766zM575.996 640c-17.672 0-32 14.328-32 32s14.328 32 32 32 32-14.328 32-32-14.328-32-32-32z" />
<glyph unicode="&#xe929;" glyph-name="Significon-External" data-tags="Significon-External" d="M416 608c0 17.672 14.328 32 32 32s32-14.328 32-32-14.328-32-32-32-32 14.328-32 32v0zM999.454 372.876c-0.61-0.954-1.376-1.828-2.030-2.766-1.642-2.078-3.284-4.14-5.018-6.11-1.888-2.25-3.468-4.734-5.562-6.844-16.594-16.578-37.718-25.344-59.422-27.234-2.406-0.578-4.844-0.938-7.422-0.938-17.672 0-32 14.328-32 32 0 17.704 14.328 32 32 32v0.25c7.812 0.25 15.596 3.204 21.594 9.172 1.094 1.078 1.562 2.5 2.484 3.704 9.812 11.312 15.922 25.78 15.922 41.89v384c0 35.344-28.656 64-64 64h-384c-16.11 0-30.578-6.11-41.89-15.922-1.204-0.922-2.624-1.39-3.704-2.484-12.484-12.5-12.484-32.75 0-45.264l23.704-23.704c9.156-11.092 14.906-25.14 14.906-40.624 0-35.342-28.656-64-64-64h-297.016c-44.188 0-80-35.812-80-80v-544c0-44.188 35.812-80 80-80h544c44.188 0 80 35.812 80 80v292.514c0 13.234-10.734 24-24 24-6.624 0-12.624-2.704-16.984-7.062-0.14-0.14-0.11 0-0.14 0.032l-191.812-191.812c-50.328-50.328-131.938-50.328-182.266 0l-91.124 91.124c-50.33 50.328-50.33 131.938 0 182.25l65.64 65.64 0.062-0.062c5.78 5.78 13.78 9.374 22.624 9.374 17.67 0 32-14.328 32-32 0-9.062-3.782-17.156-9.812-22.984l-65.39-65.344c-25.204-25.204-25.204-66 0-91.204l91.172-91.156c25.188-25.204 66.032-25.204 91.188 0l205.718 205.704c0.032 0.046 0.032 0 0.062 0.046 14.516 14.796 34.704 23.922 57.062 23.922 44.188 0 80-35.782 80-80v-328.984c0-70.688-57.312-128-128-128h-576c-70.688 0-128 57.312-128 128v576c0 70.688 57.312 128 128 128h274c8.844 0 16 7.156 16 16 0 4.438-1.782 8.438-4.688 11.312-0.328 0.328 0.25 0.172 1.312-0.218-30.376 37.704-28.484 92.718 6.532 127.75 2.11 2.11 4.594 3.672 6.844 5.562 1.968 1.734 4.032 3.376 6.11 5.016 0.954 0.656 1.812 1.422 2.766 2.032 21.124 15.39 47.014 24.546 75.124 24.546h384c70.688 0 128-57.312 128-128v-384c0-28.11-9.156-54-24.546-75.124v0z" />
<glyph unicode="&#xe92a;" glyph-name="Significon-Eye" data-tags="Significon-Eye" d="M376.244 538.532c-12.532 12.492-12.532 32.758 0 45.242 12.484 12.492 32.75 12.492 45.234 0 12.5-12.484 12.5-32.75 0-45.242-12.484-12.524-32.75-12.524-45.234 0v0zM647.756 583.774c74.966-74.968 74.966-196.54 0-271.524-74.966-75-196.544-75-271.512 0-37.812 37.782-56.718 86.25-56.234 135.766h0.172c0 8.18 3.14 16.36 9.39 22.61 12.484 12.524 32.75 12.524 45.25 0 6.406-6.414 9.39-14.906 9.218-23.352-0.094-32.93 12.36-64.68 37.436-89.774 50-50 131.046-50 181.030 0 49.968 50 49.968 131.040 0 181.032-25.11 25.086-56.904 37.508-89.796 37.406-8.454-0.204-16.938 2.812-23.344 9.266-12.5 12.484-12.5 32.75 0 45.242 6.234 6.242 14.422 9.368 22.624 9.368v0.204c49.518 0.264 97.984-18.464 135.766-56.244v0zM992 416.016c-12.828 0-23.766 7.61-28.89 18.454-88.748 152.226-262.34 269.554-451.118 269.554-189.404 0-354.384-103.14-442.93-256.008 88.546-152.89 253.528-256 442.93-256 86.546 0 168 21.578 239.372 59.562l0.14-0.266c4.812 2.906 10.422 4.718 16.5 4.718 17.64 0 32-14.376 32-32.016 0-14.046-9.124-25.86-21.688-30.172-79.594-41.81-170.076-65.842-266.324-65.842-226.028 0-417.682 130.532-511.992 320.016 94.31 189.484 285.964 319.984 511.992 319.984 217.356 0 406.12-118.18 504.134-295.954 2.172-3.938 4.078-7.774 5.532-12.118 1.5-3.696 2.344-7.704 2.344-11.914-0.002-17.67-14.362-31.998-32.002-31.998v0zM863.97 320c17.688 0 32.016-14.312 32.016-32 0-17.656-14.328-31.968-32.016-31.968-17.64 0-32 14.312-32 31.968 0 17.688 14.36 32 32 32v0z" />
<glyph unicode="&#xe92b;" glyph-name="Significon-FastBackward" data-tags="Significon-FastBackward" d="M894.468 0c-28.876 0-55.36 9.718-76.874 25.718l-389.186 319.97c-1.078 1.016-2.218 1.938-3.266 2.984-54.89 54.86-54.89 143.796 0 198.704 1.078 1.062 2.234 1.968 3.344 3l125.328 103.046c11.906 13.39 22.172 28.844 22.172 48.078v64.766c0 36.312-29.422 65.734-65.734 65.734-13.734 0-26.344-4.344-36.89-11.516-111.906-91.062-287.952-234.468-385.828-314.202-31.546-32.468-31.36-84.344 0.75-116.454 2.11-2.124 4.344-4.094 6.594-5.922 0.516-0.438 0.796-0.796 1.266-1.188 99.312-80.828 268.624-218.718 377.296-307.186 5.016-3.422 10.516-6.14 16.36-8.11l-0.032-0.11c12.844-4.172 22.204-16.078 22.204-30.282 0-17.688-14.312-32-32-32-3.406 0-6.61 0.672-9.688 1.64l-0.032-0.062c-0.25 0.062-0.516 0.25-0.766 0.312-1.312 0.468-2.578 1.016-3.876 1.656-11.468 4.344-22.312 9.938-32 17.11l-389.2 320.048c-1.078 1-2.234 1.89-3.266 2.938-27.188 27.19-40.902 62.748-41.14 98.386-0.244 36.27 13.47 72.624 41.14 100.316 1.11 1.11 2.328 2.032 3.468 3.11l388.75 319.61c21.594 16.11 48.156 25.906 77.14 25.906 71.5 0 129.484-57.984 129.484-129.484v-62.5c0-38.422-17.032-72.796-43.876-96.266-47-38.25-90.532-73.734-124.578-101.468-31.532-32.468-31.36-84.344 0.766-116.454 2.11-2.124 4.296-4.094 6.594-5.922 0.5-0.438 0.796-0.796 1.25-1.188 99.314-80.828 268.594-218.718 377.264-307.186 10.546-7.188 23.14-11.516 36.812-11.516 36.312 0 65.766 29.454 65.766 65.766v636.484c0 36.312-29.454 65.734-65.766 65.734-13.766 0-26.438-4.422-37.016-11.672-29.216-23.782-62.748-51.094-98.202-79.968-5.812-6.032-13.954-9.828-23-9.828-17.688 0-32 14.312-32 31.968 0 11.796 6.454 21.984 15.968 27.546l97.36 80.046c21.562 16.112 48.156 25.908 77.14 25.908 71.548 0 129.532-57.984 129.532-129.484v-637c0-71.532-57.984-129.516-129.532-129.516v0zM591.986 112.016c17.688 0 32-14.312 32-32s-14.312-32.016-32-32.016c-17.656 0-32 14.328-32 32.016s14.344 32 32 32v0z" />
<glyph unicode="&#xe92c;" glyph-name="Significon-FastForward" data-tags="Significon-FastForward" d="M982.856 348.672c-1.062-1.078-2.218-1.968-3.328-3.016l-389.108-319.938c-21.562-16-48.046-25.718-76.922-25.718-71.516 0-129.484 57.984-129.484 129.516v62.516c0 38.64 17.218 73.11 44.266 96.578 46.906 38.172 90.312 73.546 124.25 101.218 31.438 32.438 31.25 84.282-0.828 116.39-2.11 2.11-4.296 4.078-6.594 5.922-0.5 0.422-0.796 0.782-1.25 1.172-99.314 80.844-268.594 218.688-377.28 307.172-10.532 7.172-23.126 11.516-36.796 11.516-36.312 0-65.766-29.422-65.766-65.734v-636.484c0-36.312 29.454-65.766 65.766-65.766 13.592 0 26.046 4.328 36.546 11.36 1.344 1.078 2.766 2.266 4.094 3.344l0.11-0.14c5.704 5.204 13.172 8.422 21.5 8.422 17.64 0 32-14.312 32-32 0-11.156-5.812-20.984-14.5-26.688l-3.124-2.594c-21.516-16-48-25.718-76.89-25.718-71.534-0.002-129.518 57.982-129.518 129.514v637c0 71.5 57.984 129.484 129.516 129.484 29 0 55.578-9.75 77.156-25.906l388.92-319.782c1.078-1 2.218-1.906 3.266-2.938 54.89-54.906 54.89-143.844 0-198.704-1.046-1.046-2.156-1.906-3.204-2.906l-125.39-103.078c-11.984-13.39-22.25-28.844-22.25-48.188v-64.718c0-36.312 29.422-65.766 65.734-65.766 13.532 0 25.984 4.266 36.422 11.218 111.906 91.094 288.358 234.796 386.374 314.594 31.438 32.438 31.25 84.282-0.828 116.39-2.11 2.11-4.344 4.078-6.594 5.922-0.516 0.422-0.796 0.782-1.266 1.172-99.314 80.846-268.576 218.69-377.264 307.174-10.548 7.172-23.14 11.516-36.844 11.516-28.234 0-52.094-17.906-61.422-42.922l-0.328 0.11c-4.454-12.296-16.14-21.172-29.984-21.172-17.656 0-32.016 14.328-32.016 32.016 0 3.656 0.718 7.14 1.876 10.406h-0.046c0.046 0.094 0.11 0.204 0.156 0.312 0.5 1.438 1.14 2.796 1.86 4.124 19.232 47.47 65.294 81.126 119.654 81.126 29.032 0 55.578-9.75 77.172-25.906l388.92-319.782c1.078-1 2.234-1.906 3.266-2.938 54.858-54.906 54.858-143.842 0-198.702v0zM288 160.016c17.688 0 32-14.344 32-32 0-17.688-14.312-32-32-32-17.656 0-31.968 14.312-31.968 32-0.002 17.656 14.31 32 31.968 32v0z" />
<glyph unicode="&#xe92d;" glyph-name="Significon-Files" data-tags="Significon-Files" d="M832.016 608.012c0-17.68-14.36-32.008-32-32.008-17.688 0-32.016 14.328-32.016 32.008 0 17.688 14.328 32.008 32.016 32.008 17.64 0.002 32-14.32 32-32.008v0zM832.016 64h-544.016c-53.016 0-96.016 43.002-96.016 96.002v672.012c0 70.696 57.328 127.986 128.016 127.986h256.016c35.328 0 63.968-28.64 63.968-63.976v-191.994c0-35.368 28.672-64.008 64.016-64.008 17.672 0 32-14.322 32-32.008 0-17.68-14.328-32.008-32-32.008-70.704 0-127.984 57.328-127.984 128.024v191.994h-256.016c-35.36 0-64-28.68-64-64.008v-656.012c0-26.516 21.484-48 47.984-48h528.032c35.328 0 63.968 28.656 63.968 64.016v434.728l-196.234 196.276c-12.484 12.492-12.484 32.75 0 45.242 12.5 12.484 32.75 12.484 45.25 0l205.266-205.236c0.032-0.032 0.062-0.102 0.094-0.132 5.906-5.804 9.64-13.914 9.64-22.876v-448.004c0-70.704-57.328-128.018-127.984-128.018v0zM671.984 0.016c11.266 0 32.016 0 32.016 0 17.672 0 32-14.328 32-32 0-17.688-14.328-32.016-32-32.016-3.468 0-480.016 0-480.016 0-88.344 0-159.984 71.656-159.984 160.002v480.002c0 17.688 14.328 32.008 32 32.008 17.688 0 32.016-14.32 32.016-32.008v-480.002c0-53.018 42.968-95.986 95.968-95.986h448zM96 672.022c-17.672 0-32 14.328-32 32.008 0 17.648 14.328 31.968 32 31.968 17.688 0 32.016-14.32 32.016-31.968 0-17.68-14.328-32.008-32.016-32.008v0z" />
<glyph unicode="&#xe92e;" glyph-name="Significon-Flag" data-tags="Significon-Flag" d="M160 576c17.672 0 32-14.328 32-32s-14.328-32-32-32-32 14.328-32 32 14.328 32 32 32v0zM832 192c0 0-40.546 0-80 0-122.624 0-293.376 128-416 128-39.454 0-80 0-80 0-35.344 0-64-28.656-64-64v-288c0-17.672-14.328-32-32-32s-32 14.328-32 32v288c0 70.686 57.312 128 128 128 0 0 86.032 0 96 0 122.624 0 293.376-128 416-128 39.454 0 64 0 64 0 35.344 0 64 28.656 64 64v320c0 35.344-28.656 64-64 64 0 0-56.546 0-96 0-122.624 0-293.376 128-416 128-39.454 0-64 0-64 0-35.344 0-64-28.656-64-64v-96c0-17.672-14.328-32-32-32s-32 14.328-32 32v96c0 70.688 57.312 128 128 128 0 0 40.546 0 80 0 122.624 0 293.376-128 416-128 39.454 0 80 0 80 0 70.688 0 128-57.312 128-128v-320c0-70.688-57.312-128-128-128v0zM160 896c-17.672 0-32 14.328-32 32s14.328 32 32 32 32-14.328 32-32-14.328-32-32-32v0z" />
<glyph unicode="&#xe92f;" glyph-name="Significon-Folder" data-tags="Significon-Folder" d="M159.986 256.002c17.688 0 32.016-14.312 32.016-32 0-17.656-14.33-32-32.016-32-17.672 0-32 14.344-32 32 0 17.688 14.328 32 32 32v0zM896 64h-768.014c-70.704 0-127.986 57.346-127.986 128.002v447.996c0 68.22 53.312 123.782 120.58 127.642l46.64 82.080c15.374 27.044 54.986 46.28 90.344 46.28h192.002c35.328 0 75.118-19.234 90.742-46.282l47.156-81.704h276.534c17.656 0 32.002-14.312 32.002-32s-14.346-32-32.002-32h-288.002c-4.632 0-11 1.33-16.656 3.25-13.744 4.666-26.688 14.704-33.624 27.39l-36.306 66.486c-9.844 18.032-34.89 30.89-57.188 30.89h-161.344c-22.266 0-47.218-12.86-56.922-30.89l-35.736-66.486c-6.656-12.422-15.46-22.246-29.156-27.188-7.736-2.792-14.902-3.454-21.078-3.454v0c-30.172 0-64.016-35.814-64.016-80v-416.010c0-41.968 32.454-75.968 73.516-79.344 2.11-0.438 4.282-0.624 6.484-0.624h736.028c44.19 0 79.97 35.782 79.97 79.968v288.026c0 44.156-35.782 80-79.97 80h-640.012c-26.5 0-47.984-21.484-47.984-48.032v-175.96c0-17.69-14.33-32.034-32.016-32.034-17.672 0-32 14.344-32 32.034v159.976c0 3.594 0.234 7.204 0.546 10.718-0.11 1.812-0.546 3.468-0.546 5.266v16.016c0 53.016 42.968 95.986 96.016 95.986h15.984c1.796 0 3.5-0.438 5.296-0.546 3.532 0.312 7.062 0.546 10.688 0.546h640.030c70.656 0 128-57.282 128-127.986v-320.010c0-70.656-57.344-128.002-128-128.002v0z" />
<glyph unicode="&#xe930;" glyph-name="Significon-FolderOpen" data-tags="Significon-FolderOpen" d="M1019.406 512l-87.688-320c-19.376-70.688-92.312-128-162.922-128h-336.796c-17.672 0-32 14.328-32 32s14.328 32 32 32h338.344c44.14 0 89.718 35.812 101.844 80l78.906 288c12.094 44.188-13.876 80-58 80h-511.446c-44.132 0-89.718-35.812-101.828-80l-47.804-174.484c-0.046-0.172-0.14-0.344-0.196-0.516l-32.368-118.14c-11.702-43.142-51.116-74.86-97.952-74.86-56.054 0-101.5 45.438-101.5 101.5v410.5c0 68.188 53.368 123.766 120.594 127.624l46.656 82.062c15.374 27.048 54.976 46.314 90.328 46.314h192c35.344 0 75.11-19.266 90.734-46.312l47.156-81.688h276.532c17.672 0 32-14.328 32-32s-14.328-32-32-32h-288c-18.968 0-40.532 12.782-50.266 30.624l-36.296 66.5c-9.844 18.032-34.906 30.876-57.188 30.876h-161.344c-22.282 0-47.242-12.844-56.938-30.876l-35.734-66.5c-9.586-17.842-23.274-30.624-50.234-30.624-30.18 0-64-35.812-64-80v-385c0-22.094 17.906-40 40-40 18.5 0 34.070 12.562 38.64 29.624l77.642 283.376c19.368 70.688 92.312 128 162.922 128h543.406c58.846 0 97.35-39.808 97.39-93.988 0.010-10.83-1.37-22.236-4.594-34.012zM304 128c17.672 0 32-14.328 32-32s-14.328-32-32-32-32 14.328-32 32 14.328 32 32 32z" />
<glyph unicode="&#xe931;" glyph-name="Significon-Friends" data-tags="Significon-Friends" d="M896.004 160h-32.016c-17.686 0-31.982 14.344-31.982 31.968 0 17.688 14.296 32.032 31.982 32.032h32.016c35.31 0 63.998 28.624 63.998 64v95.97c0 2.562-0.5 5.124-1.234 7.594-0.25 0.938-0.704 1.844-1.078 2.812-0.454 1.094-0.86 2.218-1.438 3.282-7.296 14.804-25.172 29.054-47.482 33.148-28.546 10.624-66.716 17.188-108.792 17.188-40.876 0-78.014-6.61-106.28-16.954-14.296-2.094-26.874-8.484-36.31-16.516l-0.156 0.204c-5.204-4.61-12-7.508-19.5-7.508-16.282 0-29.5 13.242-29.5 29.508 0 11.546 6.672 21.438 16.282 26.266 17.344 12.642 38.406 23.532 62.888 31.642-26.216 26.094-43.56 61.124-46.748 100.282-0.438 4.328-0.656 8.688-0.656 13.094v95.986c0 70.688 57.294 128 128.012 128h63.998c70.67 0 127.996-57.314 127.996-128v-95.986c0-17.672-14.344-32.016-32.014-32.016-17.688 0-31.984 14.344-31.984 32.016v95.986c0 35.36-28.688 64-63.998 64h-63.998c-35.358 0-64.014-28.64-64.014-64v-95.986c0-53.032 42.998-96.016 95.982-96.016 118.246 0 214.836-52.344 223.196-118.744 0.5-3 0.828-6.094 0.828-9.282v-95.97c-0.002-70.718-57.328-128-127.998-128v0zM559.592 435.088c-0.36-1.11-0.782-2.266-1.312-3.344-0.046-0.032-0.046-0.124-0.078-0.156h-0.046c-5.188-10.672-15.982-18.094-28.638-18.094-17.688 0-32.016 14.344-32.016 32.016 0 4.578 0.984 8.954 2.718 12.86l-0.094 0.046c7.546 16.314 11.876 34.408 11.876 53.58 0 7.124-0.75 14.094-1.86 20.938 1.204 5.766 1.86 11.782 1.86 17.922v130.268c0 47.968-38.202 86.876-85.34 86.876h-85.31c-47.154 0-85.356-38.906-85.356-86.876v-130.268c0-6.14 0.672-12.156 1.86-17.922-1.11-6.844-1.86-13.812-1.86-20.938 0-70.688 57.326-128.024 128.012-128.024 204.026 0 370.488-72.968 382.8-165.034 0.704-3.562 1.204-7.218 1.204-10.938v-80.032c0-70.69-57.326-127.97-128.012-127.97h-512c-70.674 0-128 57.282-128 127.97v80.032c0 3.718 0.36 7.218 0.906 10.688 4.156 32.25 27.358 61.968 64.076 87.062 5.204 4.408 11.828 7.22 19.17 7.22 16.36 0 29.624-13.22 29.624-29.596 0-10.468-5.436-19.562-13.64-24.844l0.204-0.312c-23.108-15.436-36.342-32.562-36.342-50.218v-80.032c0-35.314 28.686-63.97 63.998-63.97h512c35.358 0 63.998 28.656 63.998 63.97v80.032c0 61.876-143.278 111.97-319.99 111.97-51.388 0-97.966 20.344-132.418 53.218-9.11 8.688-17.468 18.344-24.718 28.688-7.094 10.086-13.234 20.93-18.296 32.304-0.218 0.406-0.374 0.782-0.578 1.188-2.11 4.828-3.968 9.86-5.688 14.89-0.376 1.14-0.876 2.218-1.234 3.376-1.454 4.484-2.562 9.14-3.672 13.796-0.422 1.734-0.954 3.422-1.328 5.204-1.11 5.312-1.844 10.75-2.546 16.188-0.124 1.032-0.376 2.032-0.454 3.062-0.704 6.594-1.078 13.312-1.078 20.11 0 3.546 0.328 6.954 0.546 10.468-0.25 3.624-0.546 7.204-0.546 10.876v149.314c0 82.5 64.498 149.344 143.996 149.344h96.012c79.544 0 143.996-66.844 143.996-149.344v-149.314c0-3.672-0.282-7.25-0.532-10.876 0.204-3.516 0.532-6.922 0.532-10.468 0-27.406-6.016-53.328-16.406-76.906v0zM208.026 336.002c0-17.656-14.344-32.002-32.016-32.002-17.686 0-31.982 14.346-31.982 32.002s14.296 32 31.982 32c17.672 0 32.016-14.344 32.016-32v0z" />
<glyph unicode="&#xe932;" glyph-name="Significon-Full" data-tags="Significon-Full" d="M719.998 368.004c0 17.656 14.312 32 32 32s32-14.344 32-32c0-17.688-14.312-32.032-32-32.032s-32 14.344-32 32.032v0zM836.092 331.878l0.032-0.032 24.032 24.062 0.25-0.25c17.312 17.376 41.094 28.344 67.594 28.344 53.034 0 96.002-43 96.002-96.002v-224c-0.002-70.688-57.314-128-128.004-128h-224c-3.594 0-7.188 0.438-10.784 1.094-44.876 5.094-80 40.75-84.312 85.876-0.532 3.094-0.906 6.124-0.906 9.032 0 26.5 10.938 50.282 28.376 67.624l-0.25 0.25 6.218 6.188c0.188 0.312 0.312 0.624 0.624 0.968 9.376 9.376 9.376 24.562 0 33.938-0.032 0.032-0.032 0.062-0.062 0.094l-71.532 71.562c-0.406 0.468-0.718 0.906-1.188 1.376-40.836 40.468-41.18 105.626-1.438 146.752l253.252 253.244c16.252 16.252 67.406 19.062 88.25-1.75 0.25-0.218 0.468-0.266 0.718-0.468l26.406-26.406c5.75-5.766 13.812-9.376 22.624-9.376 17.656 0 31.97 14.328 31.97 32.016v207.986c0 44.188-35.784 80-80.002 80h-207.964c-17.69 0-32.002-14.328-32.002-32.016 0-8.89 3.624-16.89 9.468-22.704l27.846-27.83c19.812-20.876 15.44-72.702 0.68-87.46l-253.988-253.978c-39.704-39.54-104.062-39.54-143.704 0.14-1.078 1.078-2.14 1.938-3.156 2.688l-71.984 71.97c-0.062 0.078-0.14 0.078-0.204 0.156-9.36 9.39-24.562 9.39-33.938 0-0.312-0.312-0.61-0.422-0.922-0.624l-6.266-6.282c-17.392-17.376-41.376-28.064-67.86-28.064-53.014 0-95.968 42.97-95.968 96.018v224.002c0 70.672 57.282 127.984 127.984 127.984h224.002c3.594 0 7.188-0.438 10.782-1.094 44.876-5.094 80-40.75 84.314-85.89 0.546-3.094 0.922-6.14 0.922-9.032 0-26.61-10.83-50.674-28.314-68.048l-6.11-6.14c-0.172-0.266-0.266-0.516-0.578-0.828-9.36-9.36-9.36-24.562 0-33.938 0.078-0.062 0.078-0.124 0.14-0.188l26.468-26.468c6.376-6.188 10.392-14.812 10.392-24.376 0-18.782-15.236-34.016-34.016-34.016-9.468 0-18.016 3.938-24.188 10.188l-46.204 46.188c-22.64 25.11-22.046 63.704 2.14 87.906 0.234 0.234 0.282 0.484 0.484 0.706l26.39 26.406c5.782 5.812 9.376 13.782 9.376 22.61 0 17.688-14.328 32.016-32 32.016h-207.984c-44.188 0-80.032-35.812-80.032-80v-207.986c0-17.688 14.36-32.016 32-32.016 8.89 0 16.938 3.64 22.75 9.468l27.968 27.968c25.048 23.594 64.314 23.328 88.844-1l92.798-92.798c13.124-12.796 33.938-12.796 47.172-0.14l235.34 235.344c0.062 0.062 0.062 0.124 0.124 0.188 9.376 9.376 9.376 24.578 0 33.938-0.25 0.282-0.282 0.484-0.468 0.718l-6.438 6.454c-17.344 17.376-28.062 41.376-28.062 67.846 0 53.046 43 96.016 96.002 96.016h224c70.69-0.002 128.002-57.314 128.002-127.986v-224.002c0-3.594-0.438-7.204-1.094-10.796-5.094-44.876-40.75-80.002-85.876-84.314-3.094-0.532-6.124-0.906-9.032-0.906-26.5 0-50.532 10.718-67.906 28.096l-6.282 6.282c-0.282 0.172-0.532 0.282-0.844 0.594-9.376 9.39-24.562 9.39-33.938 0-0.094-0.11-0.218-0.11-0.312-0.218l-233.064-233.060c-13.938-14.282-13.844-37.064 0.312-51.22 0.468-0.468 0.532-0.844 0.812-1.282l91.908-91.906c22.344-25.156 21.656-63.468-2.438-87.532-0.25-0.25-0.25-0.438-0.438-0.688l-26.44-26.438c-5.812-5.782-9.376-13.812-9.376-22.624 0-17.688 14.312-32.034 32.002-32.034h207.968c44.218 0 80.002 35.846 80.002 80.002v208.032c0 17.69-14.314 32.002-31.97 32.002-8.876 0-16.938-3.624-22.718-9.468l-28-28.002c-17.99-17.99-28.906-29.062-42.312-29.062-17.624 0-31.968 14.376-31.968 32 0 8.75 3.468 16.658 9.124 22.376l-0.032 0.032 24.004 23.998zM86.954 383.098c3.078 0.532 6.14 0.906 9.016 0.906 26.516 0 50.516-10.75 67.892-28.124l6.204-6.218c0.312-0.188 0.61-0.312 0.954-0.656 9.376-9.344 24.578-9.344 33.938 0 0.032 0.062 0.062 0.062 0.11 0.094l26.562 26.562c6.188 6.376 14.796 10.312 24.376 10.312 18.766 0 33.968-15.188 33.968-33.968 0-9.562-3.938-18.188-10.312-24.376l-45.662-45.66c-16.36-16.362-67.468-19.062-88.266 1.782-0.25 0.25-0.484 0.282-0.718 0.468l-26.406 26.408c-5.796 5.812-13.782 9.376-22.64 9.376-17.64 0-32-14.312-32-32.002v-208.032c0-44.156 35.844-80.002 80.032-80.002h207.986c17.672 0 32 14.346 32 32.034 0 8.876-3.624 16.938-9.468 22.718l-28 28c-19.718 20.906-14.626 73.138 1.484 89.25l43.484 43.5c6.218 6.468 14.86 10.532 24.5 10.532 18.782 0 34.016-15.218 34.016-34.032 0-9.624-4.11-18.312-10.564-24.5l-26.36-26.406c-0.046-0.032-0.046-0.062-0.078-0.094-9.36-9.376-9.36-24.562 0-33.938 0.344-0.344 0.438-0.656 0.64-0.968l6.25-6.218c17.376-17.376 28.11-41.376 28.11-67.844 0-53.034-43.016-96.002-96.016-96.002h-224.002c-70.702 0-127.984 57.312-127.984 128.002v224c0 3.594 0.438 7.188 1.078 10.784 5.094 44.874 40.766 80 85.876 84.312v0z" />
</font>
</defs>
</svg>
